<?xml version="1.0" encoding="UTF-8"?>
<svg xmlns="http://www.w3.org/2000/svg" viewBox="0 0 371 237"><defs><linearGradient id="a" x1="-.001%" x2="100.001%" y1="50.001%" y2="50.001%"><stop stop-color="#C8DBE6" offset="0%"/><stop stop-color="#C8DBE6" offset="0%"/><stop stop-color="#C8DBE6" offset="0%"/><stop stop-color="#C8DBE6" offset="0%"/><stop stop-color="#C8DBE6" offset="0%"/><stop stop-color="#427A9B" offset="61.539%"/><stop stop-color="#427A9B" offset="61.539%"/><stop stop-color="#326D90" offset="100%"/></linearGradient><radialGradient id="b" cx="31.41%" cy="34.652%" r="1.14%" fx="31.41%" fy="34.652%"><stop stop-color="#D9F3FD" offset="0%"/><stop stop-color="#40C2F3" offset="100%"/></radialGradient><linearGradient id="c" x1="50.246%" x2="49.421%" y1="-.004%" y2="100.979%"><stop stop-color="#2C78A0" offset="0%"/><stop stop-color="#2C78A0" offset="0%"/><stop stop-color="#2C78A0" offset="0%"/><stop stop-color="#2C78A0" offset="0%"/><stop stop-color="#2C78A0" offset="0%"/><stop stop-color="#246184" offset="15.935%"/><stop stop-color="#246184" offset="15.935%"/><stop stop-color="#C8DBE6" offset="100%"/><stop stop-color="#C8DBE6" offset="100%"/></linearGradient><linearGradient id="d" x1="63.7%" x2="34.798%" y1="74.265%" y2="47.869%"><stop stop-color="#5F91AE" offset="0%"/><stop stop-color="#025783" offset="49.451%"/><stop stop-color="#025783" offset="49.451%"/><stop stop-color="#FFF" offset="100%"/><stop stop-color="#FFF" offset="100%"/></linearGradient></defs><g fill="none" fill-rule="evenodd"><path fill="#ED2939" d="M4 0h22v14H4z"/><path fill="#FFF" d="M4 5h22v5H4z"/><path fill="#ED2939" d="M28 0h22v14H28z"/><path fill="#FAE042" d="M28 0h14.667v14H28z"/><path fill="#000" d="M28 0h7.333v14H28z"/><path fill="#C60C30" d="M4 16h22v14H4z"/><path fill="#FFF" d="M11.135 16h2.378v14h-2.378z"/><path fill="#FFF" d="M4 22h22v2H4z"/><path fill="#ED2939" d="M28 16h22v14H28z"/><path fill="#FFF" d="M28 16h14.667v14H28z"/><path fill="#002395" d="M28 16h7.333v14H28z"/><path fill="#000" d="M4 32h22v14H4z"/><path fill="#D00" d="M4 36.667h22V46H4z"/><path fill="#FFCE00" d="M4 41.333h22V46H4z"/><path fill="#169B62" d="M28 32h22v14H28z"/><path fill="#FFF" d="M35.333 32H50v14H35.333z"/><path fill="#FF883E" d="M42.667 32H50v14h-7.333z"/><path fill="#009246" d="M1 136h7.333v14H1z"/><path fill="#FFF" d="M8.333 136h7.333v14H8.333z"/><path fill="#CE2B37" d="M15.667 136H23v14h-7.333z"/><path fill="#006AA7" d="M1 168h22v14H1z"/><path fill="#FECC00" d="M7.875 168h2.75v14h-2.75z"/><path fill="#FECC00" d="M1 173.6h22v2.8H1z"/><path fill="#F00" d="M25 168h22v14H25z"/><path fill="#FFF" d="M31.217 173.31h9.565v2.897h-9.565z"/><path fill="#FFF" d="M34.565 169.93h2.87v9.656h-2.87z"/><path fill="#21468B" d="M25 136h22v14H25z"/><path fill="#FFF" d="M25 136h22v9.333H25z"/><path fill="#AE1C28" d="M25 136h22v4.667H25z"/><path fill="#EF2B2D" d="M1 152h22v14H1z"/><path fill="#FFF" d="M7 152h4v14H7z"/><path fill="#FFF" d="M1 157.25h22v3.5H1z"/><path fill="#002868" d="M8 152h2v14H8z"/><path fill="#002868" d="M1 158.125h22v1.75H1z"/><path fill="#C60B1E" d="M25 152h22v14H25z"/><path fill="#FFC400" d="M25 155.5h22v7H25z"/><g fill="#155195"><path d="M17.816 226.512c-2.65 0-5.33 1.096-5.33 5.04v5.34h2.367v-5.302c0-2.662 1.712-3.278 2.963-3.278 1.25 0 2.963.616 2.963 3.278v5.302h2.36v-5.34c0-3.944-2.68-5.04-5.33-5.04zm-16.722 5.333c0 2.508 1.093 5.047 5.03 5.047h4.817v-1.773h-4.2c-2.65 0-3.18-2.06-3.18-3.28 0-1.23.53-3.31 3.18-3.31h4.2v-1.74H6.13c-3.936 0-5.03 2.54-5.03 5.04zm31.7-.71h-5.71c0-.862.06-3.08 2.825-3.08 3.29 0 2.88 3.08 2.88 3.08zm-5.716 1.527h8.242c.007-.282 0-.748 0-.748 0-4.494-2.94-5.4-5.612-5.4-3.756 0-5.15 2.692-5.15 5.188v.145c0 2.508 1.094 5.047 5.03 5.047h5.438v-1.774h-4.822c-2.207 0-2.94-1.272-3.126-2.458zm15.624-1.605h-1.33c-1.245 0-2.024-.397-2.024-1.288 0-.87.61-1.22 1.876-1.23h5.23v-1.74H41.24c-2.116 0-4.516.35-4.516 2.97 0 2.85 3.195 2.81 4.138 2.81h1.33c1.246 0 2.024.4 2.024 1.29 0 .86-.61 1.21-1.875 1.22h-5.23v1.74h5.22c2.12 0 4.52-.35 4.52-2.97 0-2.86-3.19-2.82-4.13-2.82zm-11.315-15.845c-4.004-.058-8.466-3.53-8.466-9.233v-18.9h-1.33v10.06c-5.76 1.25-10.06 6.04-10.06 11.77 0 6.68 5.84 12.09 13.05 12.09 5.48 0 10.16-3.15 12.1-7.6-1.23 1.07-3.35 1.81-5.28 1.79z"/><path d="M24.656 196.834c.552-.067 7.238.02 11.144 5.947 1.315 2 .032 4.49-3.928 4.63-1.413.05-6.465-1.24-7.216-10.57"/></g><path fill="#4B7AB7" d="M22.374 60.066c-.3 0-.698.05-.997.05-.897 4.99.15 10.177 3.14 14.474.25-.296.4-.542.6-.74-2.742-4.1-3.64-9.14-2.743-13.784zm.897 0c-.99 4.446-.09 9.19 2.55 13.19.2-.246.45-.443.65-.59-2.44-3.806-3.19-8.4-2.29-12.6h-.89zm1.8 0c-.89 4.05-.25 8.448 2.15 12.054.25-.148.45-.295.75-.443-2.24-3.458-2.89-7.61-1.99-11.56-.3 0-.59-.002-.89-.05zm-4.58.15c-.3.048-.59.048-.94.146-.84 5.385.5 11.116 3.89 15.71.2-.247.35-.542.6-.84-3.24-4.445-4.33-9.83-3.54-15.017zm6.38.048c-.89 3.704-.3 7.707 1.95 11.066.2-.148.5-.296.8-.395-2.09-3.112-2.74-6.965-1.84-10.523-.3-.048-.59-.148-.89-.148zm-8.22.296c-.3 0-.59.1-.89.15-.74 6.026.8 12.15 4.79 17.14.15-.296.3-.69.45-.987-3.68-4.743-5.08-10.67-4.33-16.303zm9.92 0c-.79 3.408-.2 7.114 1.95 10.177.3-.148.7-.15 1-.247-2.19-2.816-2.84-6.422-2.04-9.682-.3-.1-.6-.15-.9-.248zm-11.71.445c-.4.1-.69.148-.99.296-.6 6.53 1.45 13.2 5.98 18.48.15-.29.25-.69.4-1.03-4.28-5.04-6.08-11.51-5.38-17.73zm13.46 0c-.75 3.21 0 6.67 2.25 9.337.35 0 .75-.05 1.2-.05-2.49-2.47-3.29-5.88-2.54-8.99-.3-.05-.6-.2-.89-.297zm-15.35.593c-.3.148-.7.295-.99.444-.34 7.113 2.15 14.375 7.53 19.958 0-.148 0-.296.05-.444 0-.247.1-.544.1-.74-4.93-5.436-7.22-12.4-6.68-19.218zm17.05 0c-.64 2.816.15 6.027 2.4 8.25.25.148.4.346.6.494.9.1 1.8.296 2.7.543-.95-.395-1.85-.987-2.59-1.728-2.04-1.927-2.69-4.645-2.19-7.164-.29-.148-.59-.296-.89-.395zm1.65.74c-.35 2.174.3 4.547 2.05 6.227 1.95 1.926 4.79 2.518 7.33 1.73-.25-.298-.4-.543-.6-.84-2.09.593-4.43.098-6.08-1.533-1.39-1.432-1.99-3.357-1.79-5.185-.3-.148-.6-.298-.9-.397v-.002zm-20.58.1c-.29.15-.59.345-.89.494-.15 7.41 2.64 14.97 8.42 20.502.2.297.5.593.8.89V83.09c-.05-.05-.15-.15-.2-.15-5.68-5.632-8.42-13.092-8.12-20.502zm22.33.792c-.1 1.432.45 2.964 1.55 4.1 1.35 1.334 3.14 1.778 4.88 1.383-.25-.197-.45-.493-.69-.79-1.24.148-2.54-.297-3.49-1.285-.84-.79-1.29-1.827-1.34-2.864-.3-.148-.6-.394-.89-.542v-.002zm-24.12.245c-.3.148-.6.346-.9.494.15 7.55 3.09 15.06 8.93 20.74.85.79 1.65 1.53 2.55 2.27-.15-.5-.2-.94-.3-1.39-.5-.55-1.1-.99-1.64-1.58-5.78-5.59-8.62-13.09-8.62-20.55zm25.97.94c.15.592.45 1.184 1 1.63.6.59 1.35.988 2.15 1.037-.94-.94-1.99-1.828-3.14-2.667zM9.6 64.66c-.3.198-.597.446-.896.643.35 7.558 3.49 14.97 9.37 20.65 1.5 1.48 3.14 2.815 4.837 3.952-.2-.445-.45-.99-.65-1.58-1.2-.89-2.39-1.93-3.59-3.016-5.78-5.69-8.87-13.1-9.07-20.65zm-1.75 1.335c-.3.297-.598.494-.897.79.546 4.842 2.04 9.485 4.584 13.783 1.24.395 2.24 1.483 2.24 2.817v.443c.89 1.187 1.89 2.274 2.99 3.41 2.54 2.52 5.38 4.595 8.47 6.126v-.05c-.15-.148-.3-.394-.55-.59-.3-.395-.6-.74-.9-1.186-2.246-1.333-4.39-3.063-6.33-4.99C11.56 80.87 8.37 73.556 7.82 66v-.003zm-1.65 1.63c-.3.296-.5.593-.8.89.6 4.297 1.99 8.347 4.084 12.2.3-.146.6-.196 1-.196-2.343-4.01-3.74-8.45-4.286-12.9zm-1.55 1.828c-.25.395-.45.69-.75 1.037.748 4 2.144 7.854 4.237 11.41.15-.295.4-.492.6-.74-1.995-3.703-3.44-7.607-4.09-11.707zm38.83 1.58c-1.65.593-3.39.593-5.04.148.848.3 1.596.75 2.344 1.24 1.048 0 2.145-.2 3.14-.59-.15-.29-.3-.59-.45-.79zm-40.28.593c-.2.346-.45.74-.6 1.186 1.645 6.67 5.084 12.943 10.32 18.13 6.776 6.67 15.35 10.425 24.12 11.264.35-.296.75-.543 1.097-.84-8.97-.592-17.693-4.298-24.522-11.017-1.294-1.29-2.49-2.62-3.54-4.01-1.343-.3-2.39-1.48-2.39-2.97v-.45c-2.094-3.56-3.59-7.41-4.487-11.32zm41.17.94c-.85.296-1.747.543-2.644.593.3.29.6.54.848.83.75-.1 1.5-.3 2.15-.6-.05-.3-.2-.59-.35-.84zM2 74.046c-.2.445-.35.89-.6 1.335 1.944 6.23 5.332 11.91 10.27 16.8 6.53 6.47 14.602 10.23 22.976 11.51.448-.24.798-.54 1.247-.74-8.572-1.03-16.946-4.84-23.575-11.36C7.22 86.5 3.78 80.52 1.99 74.05zm43.11.1c-.598.297-1.295.494-1.943.593.19.29.34.59.59.79.6-.15 1.09-.3 1.69-.5-.15-.3-.2-.6-.35-.89zm-10.74 1.426c-.4-.018-.8.007-1.173.056 1.59.94 3.39 1.53 5.08 1.828-.45-.494-.95-.938-1.55-1.234-.4-.148-.85-.296-1.2-.445-.38-.123-.77-.186-1.17-.204zm-2.27.254c-.4.147-.697.295-.996.443 2.49 1.87 5.33 2.91 8.224 3.11-.05-.3-.2-.65-.35-.94-2.49-.25-4.784-1.14-6.88-2.62zm13.657 0c-.5.147-1.05.394-1.55.542.15.198.3.494.45.79.45-.148.9-.297 1.34-.494-.1-.247-.15-.543-.25-.84v.002zm-44.81.987c-.15.494-.3 1.037-.35 1.53 2.09 5.485 5.38 10.672 9.87 15.12 6.08 5.977 13.45 9.83 21.33 11.46.45-.147.94-.345 1.49-.592-8.18-1.48-15.95-5.33-22.23-11.46C6.32 88.13 2.98 82.74.94 76.82zm29.35 0c-.1.05-.15.15-.25.198-.15.15-.3.3-.45.4 2.54 1.98 5.38 3.16 8.37 3.61h1.59v-.74c-3.29-.19-6.53-1.38-9.27-3.45zm16 .74c-.45.15-.85.298-1.3.347.15.296.25.592.4.89.34-.148.64-.2 1.04-.347 0-.296-.1-.593-.15-.89zm-17.15.594c-.15.197-.3.494-.45.79 1.043.84 2.19 1.482 3.39 2.075h2.39c-1.9-.643-3.69-1.63-5.336-2.865zm17.49 1.086c-.35.15-.646.248-1.045.396.15.29.245.59.3.88.295-.15.592-.25.842-.3 0-.3-.1-.69-.1-.99zm-18.24.593c-.05.296-.15.593-.2.89.6.444 1.245.89 1.844 1.285v-.98h.25c-.7-.34-1.29-.74-1.89-1.18zm-28.11.248c-.1.593-.15 1.186-.15 1.78 2.09 4.642 5.13 8.99 9.02 12.843 5.58 5.484 12.16 9.19 19.19 11.215.6-.1 1.195-.248 1.793-.446-7.427-1.778-14.505-5.63-20.387-11.41-4.185-4.15-7.325-8.992-9.47-13.982zm46.6 1.038c-.3.05-.55.148-.846.197.1.29.15.59.15.89.25-.05.55-.15.75-.2 0-.3-.05-.59-.05-.89zm-18.84.594c-.1.346-.1.74-.1 1.037.7.445 1.447.79 2.095 1.137v-.94c-.648-.345-1.346-.79-1.994-1.233zm18.89 1.186c-.2.05-.35.148-.6.198 0 .198.1.494.1.79.15-.05.4-.05.5-.15v-.838zm-18.99.79v1.086c5.684 3.26 12.26 4.25 18.49 2.768.15-.296.2-.593.3-.89v-.098c-4.884 1.284-10.12.988-14.8-.89h-1.89v-.79c-.65-.394-1.4-.74-2.096-1.187zm-27.91.05c0 .74.1 1.48.15 2.172 2.05 3.606 4.64 7.016 7.73 10.08 4.783 4.742 10.316 8.2 16.247 10.423.75 0 1.496-.05 2.244-.15-6.53-2.123-12.66-5.778-17.89-10.965C4.98 91.832 2.23 87.88.04 83.73zm46.9.888c-.1.1-.296.1-.446.15 0 .296-.05.592-.05.888H34.68c3.99 1.037 8.227 1.037 12.214-.05 0-.297 0-.593.05-.988zm-33.593.15c-.15.296-.3.542-.5.74.8 1.037 1.644 2.025 2.64 2.963 4.835 4.742 10.666 7.855 16.896 9.337-1.896-.593-3.54-1.382-5.035-2.518-4.087-1.68-7.925-4.2-11.215-7.46-.95-.988-1.945-2.025-2.79-3.063zm14.75 1.036c.1.444.15.84.25 1.185 5.23 2.67 11.21 3.56 16.895 2.62.05-.1.05-.1.15-.15.2-.29.45-.59.6-.98-5.98 1.29-12.41.4-17.9-2.66zm-16 .247c-.25.148-.6.297-.9.297.9 1.185 1.945 2.27 2.99 3.407 6.98 6.817 15.85 10.423 24.92 10.818.3-.296.6-.592.948-.89-9.17-.148-18.244-3.705-25.17-10.62-1-.94-1.896-1.977-2.79-3.014l-.005.01zm16.6 2.075c.25.494.45.938.75 1.332 4.285 1.828 8.92 2.52 13.406 2.223.5-.296.946-.692 1.394-1.038-5.235.643-10.67-.147-15.55-2.52v.003zm-28.06.196c.25.988.55 1.926.847 2.815 1.55 2.17 3.19 4.15 5.14 6.07 3.69 3.55 7.73 6.47 12.07 8.69 1 .19 2.05.34 2.99.44-5.23-2.33-10.12-5.58-14.35-9.78-2.64-2.52-4.78-5.34-6.68-8.25zm30.404 2.668c1.695 1.333 3.938 2.222 6.33 2.222 1.297 0 2.49-.196 3.54-.592-3.39 0-6.68-.495-9.87-1.63zm-27.9 3.706c2.69 4.594 6.78 8.15 11.764 10.077-3.19-1.927-6.18-4.2-8.87-6.966-1.047-.94-1.944-1.98-2.89-3.12zm38.43 3.36c-1.346.344-2.84.493-4.337.493h-.74c1.45.15 2.94.25 4.44.25.2-.24.45-.54.65-.74z"/><path fill="#0E2180" d="M8.718 110.51c-.454-.01-.914.017-1.373.085-2.27.36-3.906 1.62-5.057 3.42-.574 1.02-1 2.19-1.18 3.332-.364 2.73.424 7.322 5.27 9.123 2.24.84 5.115.54 7.295-1.05 1.212-.9 2.453-2.912 2.544-4.172H12.16c-.12.54-.454 1.26-1.18 1.8-1.636 1.17-3.453.39-4.27-.18-1.242-.9-1.635-2.4-1.696-4.5 0-1.112.333-2.912 1.272-3.782 1.06-.84 2.332-1.08 3.512-.72 1.333.42 2.332 1.86 2.24 3.15h-5.69v2.82h9.87c.09-1.02-.09-2.01-.273-2.94-.333-1.413-1.182-3.122-2.09-4.142-1.304-1.44-3.168-2.204-5.136-2.247v.002zm15.57.018c-.36.01-.73.04-1.108.097-1.635.24-3.815 1.17-4.572 3.3-.636 1.98 0 3.782 1.242 4.713 1.544 1.17 4.45 1.47 5.63 1.74 1.363.27 2.06.45 2.272 1.23.15.48.09 1.08-.213 1.47-.88 1.14-2.64 1.23-4.06.81-1.18-.36-1.67-1.29-1.91-2.55h-3.54c0 1.17.36 1.98.97 2.91.75 1.232 2.12 2.222 4.12 2.522 2.18.36 4.42.09 5.72-.63.79-.45 1.36-1.02 1.87-1.65.72-.9 1.36-3.15.21-5.132-1-1.71-3.27-2.07-5.36-2.43-1.21-.21-2.63-.27-3.36-1.08-.3-.36-.3-.99-.12-1.35.48-.99 1.72-1.29 2.9-1.2 1.03 0 2 .54 2.39 1.44.18.36.24.75.27 1.17H31c.064-1.318-.482-2.67-1.3-3.51-.926-.944-2.92-1.935-5.43-1.867zm16.15.007c-1.12.06-2.332.24-3.27.6-2 .81-2.998 2.732-2.998 4.77h3.634c-.09-1.048.665-1.98 1.423-2.25.302-.15.756-.24 1.21-.24.91-.028 1.817.182 2.453.782.424.39.545.93.424 1.53-.242.932-1.272 1.26-2.876 1.472-.545.09-1.18.15-1.878.24-1.907.21-4.632 1.14-5.267 3.9-.212 1.08-.03 3.06 1.634 4.35 1.15.87 2.725 1.26 3.967 1.23.545 0 1.088-.06 1.543-.15 1.27-.27 2.27-.84 3.24-1.62.03.24.272 1.08.454 1.32h3.82c-.6-1.17-.51-2.88-.51-3.84v-4.83c-.03-1.26-.03-2.52-.3-3.69-.27-1.18-1.33-3.13-4.69-3.52-.63-.06-1.3-.06-2-.06h.01zm3.088 8.102c0 .36.06 2.912-.18 3.422-.395 1.08-1.546 1.71-2.908 1.83-.273.06-.576.09-.91.06-.906 0-1.694-.45-1.997-1.14-.36-.66-.15-1.35.1-1.74.55-.96 1.49-1.14 2.82-1.41.43-.03.88-.12 1.37-.27 1-.21 1.24-.39 1.73-.75v-.01z"/><path fill="#ED2939" d="M190 0h22v14h-22z"/><path fill="#FFF" d="M190 5h22v5h-22z"/><path fill="#ED2939" d="M214 0h22v14h-22z"/><path fill="#FAE042" d="M214 0h14.667v14H214z"/><path fill="#000" d="M214 0h7.333v14H214z"/><path fill="#C60C30" d="M190 16h22v14h-22z"/><path fill="#FFF" d="M197.135 16h2.378v14h-2.378z"/><path fill="#FFF" d="M190 22h22v2h-22z"/><path fill="#ED2939" d="M214 16h22v14h-22z"/><path fill="#FFF" d="M214 16h14.667v14H214z"/><path fill="#002395" d="M214 16h7.333v14H214z"/><path fill="#000" d="M190 32h22v14h-22z"/><path fill="#D00" d="M190 36.667h22V46h-22z"/><path fill="#FFCE00" d="M190 41.333h22V46h-22z"/><path fill="#169B62" d="M214 32h22v14h-22z"/><path fill="#FFF" d="M221.333 32H236v14h-14.667z"/><path fill="#FF883E" d="M228.667 32H236v14h-7.333z"/><path fill="#009246" d="M187 136h7.333v14H187z"/><path fill="#FFF" d="M194.333 136h7.333v14h-7.333z"/><path fill="#CE2B37" d="M201.667 136H209v14h-7.333z"/><path fill="#006AA7" d="M187 168h22v14h-22z"/><path fill="#FECC00" d="M193.875 168h2.75v14h-2.75z"/><path fill="#FECC00" d="M187 173.6h22v2.8h-22z"/><path fill="#F00" d="M211 168h22v14h-22z"/><path fill="#FFF" d="M217.217 173.31h9.565v2.897h-9.565z"/><path fill="#FFF" d="M220.565 169.93h2.87v9.656h-2.87z"/><path fill="#21468B" d="M211 136h22v14h-22z"/><path fill="#FFF" d="M211 136h22v9.333h-22z"/><path fill="#AE1C28" d="M211 136h22v4.667h-22z"/><path fill="#EF2B2D" d="M187 152h22v14h-22z"/><path fill="#FFF" d="M193 152h4v14h-4z"/><path fill="#FFF" d="M187 157.25h22v3.5h-22z"/><path fill="#002868" d="M194 152h2v14h-2z"/><path fill="#002868" d="M187 158.125h22v1.75h-22z"/><path fill="#C60B1E" d="M211 152h22v14h-22z"/><path fill="#FFC400" d="M211 155.5h22v7h-22z"/><g fill="#155195"><path d="M203.816 226.512c-2.65 0-5.33 1.096-5.33 5.04v5.34h2.367v-5.302c0-2.662 1.712-3.278 2.963-3.278 1.25 0 2.963.616 2.963 3.278v5.302h2.36v-5.34c0-3.944-2.68-5.04-5.33-5.04zm-16.722 5.333c0 2.508 1.093 5.047 5.03 5.047h4.817v-1.773h-4.2c-2.65 0-3.18-2.06-3.18-3.28 0-1.23.53-3.31 3.18-3.31h4.2v-1.74h-4.81c-3.93 0-5.03 2.54-5.03 5.04zm31.7-.71h-5.71c0-.862.06-3.08 2.825-3.08 3.29 0 2.88 3.08 2.88 3.08zm-5.716 1.527h8.242c.007-.282 0-.748 0-.748 0-4.494-2.94-5.4-5.612-5.4-3.756 0-5.15 2.692-5.15 5.188v.145c0 2.508 1.094 5.047 5.03 5.047h5.438v-1.774h-4.822c-2.207 0-2.94-1.272-3.126-2.458zm15.624-1.605h-1.33c-1.245 0-2.024-.397-2.024-1.288 0-.87.61-1.22 1.876-1.23h5.23v-1.74h-5.212c-2.116 0-4.516.35-4.516 2.97 0 2.85 3.195 2.81 4.138 2.81h1.33c1.246 0 2.024.4 2.024 1.29 0 .86-.61 1.21-1.875 1.22h-5.232v1.74h5.22c2.12 0 4.52-.35 4.52-2.97 0-2.86-3.19-2.82-4.13-2.82zm-11.315-15.845c-4.004-.058-8.466-3.53-8.466-9.233v-18.9h-1.33v10.06c-5.76 1.25-10.06 6.04-10.06 11.77 0 6.68 5.84 12.09 13.05 12.09 5.48 0 10.16-3.15 12.1-7.6-1.23 1.07-3.35 1.81-5.28 1.79z"/><path d="M210.656 196.834c.552-.067 7.238.02 11.144 5.947 1.315 2 .032 4.49-3.928 4.63-1.413.05-6.465-1.24-7.216-10.57"/></g><path fill="#4B7AB7" d="M208.374 60.066c-.3 0-.698.05-.997.05-.897 4.99.15 10.177 3.14 14.474.25-.296.4-.542.6-.74-2.742-4.1-3.64-9.14-2.743-13.784zm.897 0c-.99 4.446-.09 9.19 2.55 13.19.2-.246.45-.443.65-.59-2.44-3.806-3.19-8.4-2.29-12.6h-.89zm1.8 0c-.89 4.05-.25 8.448 2.15 12.054.25-.148.45-.295.75-.443-2.24-3.458-2.89-7.61-1.99-11.56-.3 0-.59-.002-.89-.05zm-4.58.15c-.3.048-.59.048-.94.146-.84 5.385.5 11.116 3.89 15.71.2-.247.35-.542.6-.84-3.24-4.445-4.33-9.83-3.54-15.017zm6.38.048c-.89 3.704-.3 7.707 1.95 11.066.2-.148.5-.296.8-.395-2.09-3.112-2.74-6.965-1.84-10.523-.3-.048-.59-.148-.89-.148zm-8.22.296c-.3 0-.59.1-.89.15-.74 6.026.8 12.15 4.79 17.14.15-.296.3-.69.45-.987-3.68-4.743-5.08-10.67-4.33-16.303zm9.92 0c-.79 3.408-.2 7.114 1.95 10.177.3-.148.7-.15 1-.247-2.19-2.816-2.84-6.422-2.04-9.682-.3-.1-.6-.15-.9-.248zm-11.71.445c-.4.1-.69.148-.99.296-.6 6.53 1.45 13.2 5.98 18.48.15-.29.25-.69.4-1.03-4.28-5.04-6.08-11.51-5.38-17.73zm13.46 0c-.75 3.21 0 6.67 2.25 9.337.35 0 .75-.05 1.2-.05-2.49-2.47-3.29-5.88-2.54-8.99-.3-.05-.6-.2-.89-.297zm-15.35.593c-.3.148-.7.295-.99.444-.34 7.113 2.15 14.375 7.53 19.958 0-.148 0-.296.05-.444 0-.247.1-.544.1-.74-4.93-5.436-7.22-12.4-6.68-19.218zm17.05 0c-.64 2.816.15 6.027 2.4 8.25.25.148.4.346.6.494.9.1 1.8.296 2.7.543-.95-.395-1.85-.987-2.59-1.728-2.04-1.927-2.69-4.645-2.19-7.164-.29-.148-.59-.296-.89-.395zm1.65.74c-.35 2.174.3 4.547 2.05 6.227 1.95 1.926 4.79 2.518 7.33 1.73-.25-.298-.4-.543-.6-.84-2.09.593-4.43.098-6.08-1.533-1.39-1.432-1.99-3.357-1.79-5.185-.3-.148-.6-.298-.9-.397v-.002zm-20.58.1c-.29.15-.59.345-.89.494-.15 7.41 2.64 14.97 8.42 20.502.2.297.5.593.8.89V83.09c-.05-.05-.15-.15-.2-.15-5.68-5.632-8.42-13.092-8.12-20.502zm22.33.792c-.1 1.432.45 2.964 1.55 4.1 1.35 1.334 3.14 1.778 4.88 1.383-.25-.197-.45-.493-.69-.79-1.24.148-2.54-.297-3.49-1.285-.84-.79-1.29-1.827-1.34-2.864-.3-.148-.6-.394-.89-.542v-.002zm-24.12.245c-.3.148-.6.346-.9.494.15 7.55 3.09 15.06 8.93 20.74.85.79 1.65 1.53 2.55 2.27-.15-.5-.2-.94-.3-1.39-.5-.55-1.1-.99-1.64-1.58-5.78-5.59-8.62-13.09-8.62-20.55zm25.97.94c.15.592.45 1.184 1 1.63.6.59 1.35.988 2.15 1.037-.94-.94-1.99-1.828-3.14-2.667zm-27.66.245c-.3.198-.6.446-.89.643.35 7.558 3.49 14.97 9.37 20.65 1.5 1.48 3.14 2.815 4.84 3.952-.2-.445-.44-.99-.64-1.58-1.19-.89-2.39-1.93-3.59-3.016-5.78-5.69-8.87-13.1-9.07-20.65zm-1.74 1.335c-.3.297-.6.494-.9.79.55 4.842 2.05 9.485 4.59 13.783 1.25.395 2.24 1.483 2.24 2.817v.443c.9 1.187 1.89 2.274 2.99 3.41 2.54 2.52 5.38 4.595 8.47 6.126v-.05c-.15-.148-.3-.394-.55-.59-.29-.395-.59-.74-.89-1.186-2.24-1.333-4.39-3.063-6.33-4.99-5.88-5.68-9.07-12.993-9.62-20.55v-.003zm-1.64 1.63c-.3.296-.5.593-.8.89.6 4.297 1.99 8.347 4.09 12.2.3-.146.6-.196 1-.196-2.34-4.01-3.73-8.45-4.28-12.9zm-1.55 1.828c-.25.395-.45.69-.74 1.037.75 4 2.15 7.854 4.24 11.41.15-.295.4-.492.6-.74-1.99-3.703-3.44-7.607-4.09-11.707zm38.83 1.58c-1.64.593-3.39.593-5.03.148.85.3 1.6.75 2.35 1.24 1.04 0 2.14-.2 3.14-.59-.15-.29-.3-.59-.45-.79zm-40.27.593c-.2.346-.45.74-.6 1.186 1.65 6.67 5.09 12.943 10.32 18.13 6.78 6.67 15.35 10.425 24.13 11.264.35-.296.75-.543 1.09-.84-8.97-.592-17.69-4.298-24.52-11.017-1.29-1.29-2.49-2.62-3.54-4.01-1.34-.3-2.39-1.48-2.39-2.97v-.45c-2.09-3.56-3.59-7.41-4.49-11.32zm41.17.94c-.84.296-1.74.543-2.64.593.3.29.6.54.85.83.75-.1 1.5-.3 2.14-.6-.05-.3-.2-.59-.35-.84zm-42.4 1.48c-.2.445-.35.89-.6 1.335 1.95 6.23 5.33 11.91 10.27 16.8 6.53 6.47 14.61 10.23 22.98 11.51.45-.24.8-.54 1.25-.74-8.57-1.03-16.95-4.84-23.57-11.36-5.08-5.09-8.52-11.06-10.32-17.54zm43.11.1c-.6.297-1.29.494-1.94.593.2.29.35.59.6.79.6-.15 1.1-.3 1.7-.5-.14-.3-.19-.6-.34-.89zm-10.74 1.426c-.4-.018-.8.007-1.17.056 1.6.94 3.39 1.53 5.09 1.828-.45-.494-.95-.938-1.54-1.234-.4-.148-.843-.296-1.192-.445-.373-.123-.77-.186-1.17-.204zm-2.27.254c-.4.147-.69.295-.99.443 2.49 1.87 5.34 2.91 8.23 3.11-.05-.3-.2-.65-.35-.94-2.5-.25-4.79-1.14-6.88-2.62zm13.66 0c-.5.147-1.04.394-1.54.542.15.198.3.494.45.79.45-.148.9-.297 1.35-.494-.1-.247-.15-.543-.25-.84v.002zm-44.8.987c-.15.494-.3 1.037-.35 1.53 2.09 5.485 5.38 10.672 9.87 15.12 6.08 5.977 13.45 9.83 21.33 11.46.45-.147.94-.345 1.49-.592-8.18-1.48-15.95-5.33-22.23-11.46-4.74-4.74-8.08-10.12-10.12-16.05zm29.35 0c-.1.05-.15.15-.25.198-.15.15-.3.3-.45.4 2.54 1.98 5.38 3.16 8.37 3.61h1.59v-.74c-3.29-.19-6.53-1.38-9.27-3.45zm15.99.74c-.45.15-.85.298-1.3.347.15.296.25.592.4.89.35-.148.64-.2 1.04-.347 0-.296-.1-.593-.15-.89zm-17.14.594c-.15.197-.3.494-.45.79 1.04.84 2.19 1.482 3.39 2.075h2.39c-1.9-.643-3.69-1.63-5.33-2.865zm17.49 1.086c-.35.15-.65.248-1.05.396.15.29.24.59.3.88.29-.15.59-.25.84-.3 0-.3-.1-.69-.1-.99zm-18.25.593c-.05.296-.15.593-.2.89.6.444 1.24.89 1.84 1.285v-.98h.25c-.7-.34-1.3-.74-1.9-1.18zm-28.11.248c-.1.593-.15 1.186-.15 1.78 2.09 4.642 5.13 8.99 9.02 12.843 5.58 5.484 12.16 9.19 19.19 11.215.6-.1 1.19-.248 1.79-.446-7.43-1.778-14.5-5.63-20.39-11.41-4.19-4.15-7.33-8.992-9.47-13.982zm46.6 1.038c-.3.05-.55.148-.85.197.1.29.15.59.15.89.25-.05.54-.15.74-.2 0-.3-.05-.59-.05-.89zm-18.84.594c-.1.346-.1.74-.1 1.037.69.445 1.44.79 2.09 1.137v-.94c-.65-.345-1.35-.79-1.99-1.233zm18.89 1.186c-.2.05-.35.148-.6.198 0 .198.1.494.1.79.15-.05.4-.05.49-.15v-.838zm-18.99.79v1.086c5.68 3.26 12.26 4.25 18.49 2.768.15-.296.2-.593.3-.89v-.098c-4.89 1.284-10.12.988-14.81-.89h-1.9v-.79c-.65-.394-1.4-.74-2.1-1.187zm-27.92.05c0 .74.1 1.48.15 2.172 2.04 3.607 4.63 7.016 7.72 10.08 4.78 4.742 10.32 8.2 16.25 10.423.75 0 1.5-.05 2.24-.15-6.53-2.123-12.66-5.778-17.89-10.965-3.54-3.46-6.28-7.412-8.47-11.562zm46.9.888c-.1.1-.3.1-.45.15 0 .296-.05.592-.05.888h-11.76c3.99 1.037 8.22 1.037 12.21-.05 0-.297 0-.593.05-.988zm-33.6.15c-.15.296-.3.542-.5.74.8 1.037 1.65 2.025 2.64 2.963 4.84 4.742 10.67 7.855 16.9 9.337-1.89-.593-3.53-1.382-5.03-2.518-4.09-1.68-7.92-4.2-11.21-7.46-.95-.988-1.943-2.025-2.79-3.063zm14.75 1.036c.1.444.15.84.25 1.185 5.24 2.67 11.22 3.56 16.9 2.62.05-.1.05-.1.15-.15.2-.29.45-.59.6-.98-5.98 1.29-12.41.4-17.89-2.66zm-16 .247c-.24.148-.59.297-.89.297.9 1.185 1.95 2.27 2.99 3.407 6.98 6.817 15.85 10.423 24.93 10.818.3-.296.6-.592.95-.89-9.17-.148-18.24-3.705-25.17-10.62-1-.94-1.895-1.977-2.79-3.014v.01zm16.6 2.075c.25.494.45.938.75 1.332 4.29 1.828 8.92 2.52 13.41 2.223.5-.296.95-.692 1.4-1.038-5.23.643-10.663-.147-15.55-2.52v.003zm-28.06.196c.25.988.55 1.926.85 2.815 1.54 2.17 3.19 4.15 5.13 6.07 3.69 3.55 7.73 6.47 12.06 8.69 1 .19 2.048.34 2.99.44-5.23-2.33-10.12-5.58-14.35-9.78-2.64-2.52-4.78-5.34-6.68-8.25zm30.41 2.668c1.69 1.333 3.93 2.222 6.33 2.222 1.29 0 2.49-.196 3.535-.592-3.39 0-6.68-.495-9.864-1.63zm-27.92 3.706c2.69 4.594 6.78 8.15 11.76 10.077-3.19-1.927-6.18-4.2-8.873-6.966-1.047-.94-1.944-1.98-2.89-3.12zm38.43 3.36c-1.35.344-2.842.493-4.34.493h-.744c1.45.15 2.94.25 4.44.25.2-.24.45-.54.65-.74z"/><path fill="#0E2180" d="M194.718 110.51c-.454-.01-.914.017-1.373.085-2.27.36-3.906 1.62-5.057 3.42-.574 1.02-1 2.19-1.18 3.332-.364 2.73.424 7.322 5.27 9.123 2.24.84 5.115.54 7.295-1.05 1.212-.9 2.453-2.912 2.544-4.172h-4.057c-.12.54-.454 1.26-1.18 1.8-1.636 1.17-3.453.39-4.27-.18-1.242-.9-1.635-2.4-1.696-4.5 0-1.112.333-2.912 1.272-3.782 1.06-.84 2.332-1.08 3.512-.72 1.333.42 2.332 1.86 2.24 3.15h-5.692v2.82h9.87c.09-1.02-.09-2.01-.272-2.94-.333-1.413-1.182-3.122-2.09-4.142-1.304-1.44-3.168-2.204-5.136-2.247v.002zm15.57.018c-.36.01-.73.04-1.108.097-1.635.24-3.815 1.17-4.572 3.3-.636 1.98 0 3.782 1.242 4.713 1.544 1.17 4.45 1.47 5.63 1.74 1.363.27 2.06.45 2.272 1.23.15.48.09 1.08-.213 1.47-.88 1.14-2.64 1.23-4.06.81-1.18-.36-1.67-1.29-1.91-2.55h-3.54c0 1.17.36 1.98.97 2.91.75 1.232 2.12 2.222 4.12 2.522 2.18.36 4.42.09 5.72-.63.79-.45 1.36-1.02 1.87-1.65.72-.9 1.36-3.15.21-5.132-1-1.71-3.27-2.07-5.36-2.43-1.21-.21-2.64-.27-3.36-1.08-.31-.36-.31-.99-.12-1.35.48-.99 1.72-1.29 2.9-1.2 1.03 0 2 .54 2.39 1.44.18.36.24.75.27 1.17H217c.063-1.318-.483-2.67-1.3-3.51-.927-.944-2.92-1.935-5.432-1.867zm16.15.007c-1.12.06-2.332.24-3.27.6-2 .81-2.998 2.732-2.998 4.77h3.634c-.09-1.048.665-1.98 1.423-2.25.302-.15.756-.24 1.21-.24.91-.028 1.817.182 2.453.782.424.39.545.93.424 1.53-.242.932-1.272 1.26-2.876 1.472-.545.09-1.18.15-1.878.24-1.907.21-4.632 1.14-5.267 3.9-.212 1.08-.03 3.06 1.634 4.35 1.15.87 2.725 1.26 3.967 1.23.545 0 1.088-.06 1.543-.15 1.27-.27 2.27-.84 3.24-1.62.03.24.272 1.08.454 1.32h3.82c-.6-1.17-.51-2.88-.51-3.84v-4.83c-.03-1.26-.03-2.52-.3-3.69-.27-1.18-1.33-3.13-4.69-3.52-.63-.06-1.3-.06-2-.06h.01zm3.088 8.102c0 .36.06 2.912-.18 3.422-.395 1.08-1.546 1.71-2.908 1.83-.273.06-.576.09-.91.06-.906 0-1.694-.45-1.997-1.14-.36-.66-.15-1.35.1-1.74.55-.96 1.49-1.14 2.82-1.41.43-.03.88-.12 1.37-.27 1-.21 1.24-.39 1.73-.75v-.01z"/><path fill="#ED2939" d="M128 0h22v14h-22z"/><path fill="#FFF" d="M128 5h22v5h-22z"/><path fill="#ED2939" d="M152 0h22v14h-22z"/><path fill="#FAE042" d="M152 0h14.667v14H152z"/><path fill="#000" d="M152 0h7.333v14H152z"/><path fill="#C60C30" d="M128 16h22v14h-22z"/><path fill="#FFF" d="M135.135 16h2.378v14h-2.378z"/><path fill="#FFF" d="M128 22h22v2h-22z"/><path fill="#ED2939" d="M152 16h22v14h-22z"/><path fill="#FFF" d="M152 16h14.667v14H152z"/><path fill="#002395" d="M152 16h7.333v14H152z"/><path fill="#000" d="M128 32h22v14h-22z"/><path fill="#D00" d="M128 36.667h22V46h-22z"/><path fill="#FFCE00" d="M128 41.333h22V46h-22z"/><path fill="#169B62" d="M152 32h22v14h-22z"/><path fill="#FFF" d="M159.333 32H174v14h-14.667z"/><path fill="#FF883E" d="M166.667 32H174v14h-7.333z"/><path fill="#009246" d="M125 136h7.333v14H125z"/><path fill="#FFF" d="M132.333 136h7.333v14h-7.333z"/><path fill="#CE2B37" d="M139.667 136H147v14h-7.333z"/><path fill="#006AA7" d="M125 168h22v14h-22z"/><path fill="#FECC00" d="M131.875 168h2.75v14h-2.75z"/><path fill="#FECC00" d="M125 173.6h22v2.8h-22z"/><path fill="#F00" d="M149 168h22v14h-22z"/><path fill="#FFF" d="M155.217 173.31h9.565v2.897h-9.565z"/><path fill="#FFF" d="M158.565 169.93h2.87v9.656h-2.87z"/><path fill="#21468B" d="M149 136h22v14h-22z"/><path fill="#FFF" d="M149 136h22v9.333h-22z"/><path fill="#AE1C28" d="M149 136h22v4.667h-22z"/><path fill="#EF2B2D" d="M125 152h22v14h-22z"/><path fill="#FFF" d="M131 152h4v14h-4z"/><path fill="#FFF" d="M125 157.25h22v3.5h-22z"/><path fill="#002868" d="M132 152h2v14h-2z"/><path fill="#002868" d="M125 158.125h22v1.75h-22z"/><path fill="#C60B1E" d="M149 152h22v14h-22z"/><path fill="#FFC400" d="M149 155.5h22v7h-22z"/><g fill="#155195"><path d="M141.816 226.512c-2.65 0-5.33 1.096-5.33 5.04v5.34h2.367v-5.302c0-2.662 1.712-3.278 2.963-3.278 1.25 0 2.963.616 2.963 3.278v5.302h2.36v-5.34c0-3.944-2.68-5.04-5.33-5.04zm-16.722 5.333c0 2.508 1.093 5.047 5.03 5.047h4.817v-1.773h-4.2c-2.65 0-3.18-2.06-3.18-3.28 0-1.23.53-3.31 3.18-3.31h4.2v-1.74h-4.81c-3.93 0-5.03 2.54-5.03 5.04zm31.7-.71h-5.71c0-.862.06-3.08 2.825-3.08 3.29 0 2.88 3.08 2.88 3.08zm-5.716 1.527h8.242c.007-.282 0-.748 0-.748 0-4.494-2.94-5.4-5.612-5.4-3.756 0-5.15 2.692-5.15 5.188v.145c0 2.508 1.094 5.047 5.03 5.047h5.438v-1.774h-4.822c-2.207 0-2.94-1.272-3.126-2.458zm15.624-1.605h-1.33c-1.245 0-2.024-.397-2.024-1.288 0-.87.61-1.22 1.876-1.23h5.23v-1.74h-5.212c-2.116 0-4.516.35-4.516 2.97 0 2.85 3.195 2.81 4.138 2.81h1.33c1.246 0 2.024.4 2.024 1.29 0 .86-.61 1.21-1.875 1.22h-5.232v1.74h5.22c2.12 0 4.52-.35 4.52-2.97 0-2.86-3.19-2.82-4.13-2.82zm-11.315-15.845c-4.004-.058-8.466-3.53-8.466-9.233v-18.9h-1.33v10.06c-5.76 1.25-10.06 6.04-10.06 11.77 0 6.68 5.84 12.09 13.05 12.09 5.48 0 10.16-3.15 12.1-7.6-1.23 1.07-3.35 1.81-5.28 1.79z"/><path d="M148.656 196.834c.552-.067 7.238.02 11.144 5.947 1.315 2 .032 4.49-3.928 4.63-1.413.05-6.465-1.24-7.216-10.57"/></g><path fill="#4B7AB7" d="M146.374 60.066c-.3 0-.698.05-.997.05-.897 4.99.15 10.177 3.14 14.474.25-.296.4-.542.6-.74-2.742-4.1-3.64-9.14-2.743-13.784zm.897 0c-.99 4.446-.09 9.19 2.55 13.19.2-.246.45-.443.65-.59-2.44-3.806-3.19-8.4-2.29-12.6h-.89zm1.8 0c-.89 4.05-.25 8.448 2.15 12.054.25-.148.45-.295.75-.443-2.24-3.458-2.89-7.61-1.99-11.56-.3 0-.59-.002-.89-.05zm-4.58.15c-.3.048-.59.048-.94.146-.84 5.385.5 11.116 3.89 15.71.2-.247.35-.542.6-.84-3.24-4.445-4.33-9.83-3.54-15.017zm6.38.048c-.89 3.704-.3 7.707 1.95 11.066.2-.148.5-.296.8-.395-2.09-3.112-2.74-6.965-1.84-10.523-.3-.048-.59-.148-.89-.148zm-8.22.296c-.3 0-.59.1-.89.15-.74 6.026.8 12.15 4.79 17.14.15-.296.3-.69.45-.987-3.68-4.743-5.08-10.67-4.33-16.303zm9.92 0c-.79 3.408-.2 7.114 1.95 10.177.3-.148.7-.15 1-.247-2.19-2.816-2.84-6.422-2.04-9.682-.3-.1-.6-.15-.9-.248zm-11.71.445c-.4.1-.69.148-.99.296-.6 6.53 1.45 13.2 5.98 18.48.15-.29.25-.69.4-1.03-4.28-5.04-6.08-11.51-5.38-17.73zm13.46 0c-.75 3.21 0 6.67 2.25 9.337.35 0 .75-.05 1.2-.05-2.49-2.47-3.29-5.88-2.54-8.99-.3-.05-.6-.2-.89-.297zm-15.35.593c-.3.148-.7.295-.99.444-.34 7.113 2.15 14.375 7.53 19.958 0-.148 0-.296.05-.444 0-.247.1-.544.1-.74-4.93-5.436-7.22-12.4-6.68-19.218zm17.05 0c-.64 2.816.15 6.027 2.4 8.25.25.148.4.346.6.494.9.1 1.8.296 2.7.543-.95-.395-1.85-.987-2.59-1.728-2.04-1.927-2.69-4.645-2.19-7.164-.29-.148-.59-.296-.89-.395zm1.65.74c-.35 2.174.3 4.547 2.05 6.227 1.95 1.926 4.79 2.518 7.33 1.73-.25-.298-.4-.543-.6-.84-2.09.593-4.43.098-6.08-1.533-1.39-1.432-1.99-3.357-1.79-5.185-.3-.148-.6-.298-.9-.397v-.002zm-20.58.1c-.29.15-.59.345-.89.494-.15 7.41 2.64 14.97 8.42 20.502.2.297.5.593.8.89V83.09c-.05-.05-.15-.15-.2-.15-5.68-5.632-8.42-13.092-8.12-20.502zm22.33.792c-.1 1.432.45 2.964 1.55 4.1 1.35 1.334 3.14 1.778 4.88 1.383-.25-.197-.45-.493-.69-.79-1.24.148-2.54-.297-3.49-1.285-.84-.79-1.29-1.827-1.34-2.864-.3-.148-.6-.394-.89-.542v-.002zm-24.12.245c-.3.148-.6.346-.9.494.15 7.55 3.09 15.06 8.93 20.74.85.79 1.65 1.53 2.55 2.27-.15-.5-.2-.94-.3-1.39-.5-.55-1.1-.99-1.64-1.58-5.78-5.59-8.62-13.09-8.62-20.55zm25.97.94c.15.592.45 1.184 1 1.63.6.59 1.35.988 2.15 1.037-.94-.94-1.99-1.828-3.14-2.667zm-27.66.245c-.3.198-.6.446-.89.643.35 7.558 3.49 14.97 9.37 20.65 1.5 1.48 3.14 2.815 4.84 3.952-.2-.445-.44-.99-.64-1.58-1.19-.89-2.39-1.93-3.59-3.016-5.78-5.69-8.87-13.1-9.07-20.65zm-1.74 1.335c-.3.297-.6.494-.9.79.55 4.842 2.05 9.485 4.59 13.783 1.25.395 2.24 1.483 2.24 2.817v.443c.9 1.187 1.89 2.274 2.99 3.41 2.54 2.52 5.38 4.595 8.47 6.126v-.05c-.15-.148-.3-.394-.55-.59-.29-.395-.59-.74-.89-1.186-2.24-1.333-4.39-3.063-6.33-4.99-5.88-5.68-9.07-12.993-9.62-20.55v-.003zm-1.64 1.63c-.3.296-.5.593-.8.89.6 4.297 1.99 8.347 4.09 12.2.3-.146.6-.196 1-.196-2.34-4.01-3.73-8.45-4.28-12.9zm-1.55 1.828c-.25.395-.45.69-.74 1.037.75 4 2.15 7.854 4.24 11.41.15-.295.4-.492.6-.74-1.99-3.703-3.44-7.607-4.09-11.707zm38.83 1.58c-1.64.593-3.39.593-5.03.148.85.3 1.6.75 2.35 1.24 1.04 0 2.14-.2 3.14-.59-.15-.29-.3-.59-.45-.79zm-40.27.593c-.2.346-.45.74-.6 1.186 1.65 6.67 5.09 12.943 10.32 18.13 6.78 6.67 15.35 10.425 24.13 11.264.35-.296.75-.543 1.09-.84-8.97-.592-17.69-4.298-24.52-11.017-1.29-1.29-2.49-2.62-3.54-4.01-1.34-.3-2.39-1.48-2.39-2.97v-.45c-2.09-3.56-3.59-7.41-4.49-11.32zm41.17.94c-.84.296-1.74.543-2.64.593.3.29.6.54.85.83.75-.1 1.5-.3 2.14-.6-.05-.3-.2-.59-.35-.84zm-42.4 1.48c-.2.445-.35.89-.6 1.335 1.95 6.23 5.33 11.91 10.27 16.8 6.53 6.47 14.61 10.23 22.98 11.51.45-.24.8-.54 1.25-.74-8.57-1.03-16.95-4.84-23.57-11.36-5.08-5.09-8.52-11.06-10.32-17.54zm43.11.1c-.6.297-1.29.494-1.94.593.2.29.35.59.6.79.6-.15 1.1-.3 1.7-.5-.14-.3-.19-.6-.34-.89zm-10.74 1.426c-.4-.018-.8.007-1.17.056 1.6.94 3.39 1.53 5.09 1.828-.45-.494-.95-.938-1.54-1.234-.4-.148-.843-.296-1.192-.445-.373-.123-.77-.186-1.17-.204zm-2.27.254c-.4.147-.69.295-.99.443 2.49 1.87 5.34 2.91 8.23 3.11-.05-.3-.2-.65-.35-.94-2.5-.25-4.79-1.14-6.88-2.62zm13.66 0c-.5.147-1.04.394-1.54.542.15.198.3.494.45.79.45-.148.9-.297 1.35-.494-.1-.247-.15-.543-.25-.84v.002zm-44.8.987c-.15.494-.3 1.037-.35 1.53 2.09 5.485 5.38 10.672 9.87 15.12 6.08 5.977 13.45 9.83 21.33 11.46.45-.147.94-.345 1.49-.592-8.18-1.48-15.95-5.33-22.23-11.46-4.74-4.74-8.08-10.12-10.12-16.05zm29.35 0c-.1.05-.15.15-.25.198-.15.15-.3.3-.45.4 2.54 1.98 5.38 3.16 8.37 3.61h1.59v-.74c-3.29-.19-6.53-1.38-9.27-3.45zm15.99.74c-.45.15-.85.298-1.3.347.15.296.25.592.4.89.35-.148.64-.2 1.04-.347 0-.296-.1-.593-.15-.89zm-17.14.594c-.15.197-.3.494-.45.79 1.04.84 2.19 1.482 3.39 2.075h2.39c-1.9-.643-3.69-1.63-5.33-2.865zm17.49 1.086c-.35.15-.65.248-1.05.396.15.29.24.59.3.88.29-.15.59-.25.84-.3 0-.3-.1-.69-.1-.99zm-18.25.593c-.05.296-.15.593-.2.89.6.444 1.24.89 1.84 1.285v-.98h.25c-.7-.34-1.3-.74-1.9-1.18zm-28.11.248c-.1.593-.15 1.186-.15 1.78 2.09 4.642 5.13 8.99 9.02 12.843 5.58 5.484 12.16 9.19 19.19 11.215.6-.1 1.19-.248 1.79-.446-7.43-1.778-14.5-5.63-20.39-11.41-4.19-4.15-7.33-8.992-9.47-13.982zm46.6 1.038c-.3.05-.55.148-.85.197.1.29.15.59.15.89.25-.05.54-.15.74-.2 0-.3-.05-.59-.05-.89zm-18.84.594c-.1.346-.1.74-.1 1.037.69.445 1.44.79 2.09 1.137v-.94c-.65-.345-1.35-.79-1.99-1.233zm18.89 1.186c-.2.05-.35.148-.6.198 0 .198.1.494.1.79.15-.05.4-.05.49-.15v-.838zm-18.99.79v1.086c5.68 3.26 12.26 4.25 18.49 2.768.15-.296.2-.593.3-.89v-.098c-4.89 1.284-10.12.988-14.81-.89h-1.9v-.79c-.65-.394-1.4-.74-2.1-1.187zm-27.92.05c0 .74.1 1.48.15 2.172 2.04 3.607 4.63 7.016 7.72 10.08 4.78 4.742 10.32 8.2 16.25 10.423.75 0 1.5-.05 2.24-.15-6.53-2.123-12.66-5.778-17.89-10.965-3.54-3.46-6.28-7.412-8.47-11.562zm46.9.888c-.1.1-.3.1-.45.15 0 .296-.05.592-.05.888h-11.76c3.99 1.037 8.22 1.037 12.21-.05 0-.297 0-.593.05-.988zm-33.6.15c-.15.296-.3.542-.5.74.8 1.037 1.65 2.025 2.64 2.963 4.84 4.742 10.67 7.855 16.9 9.337-1.89-.593-3.53-1.382-5.03-2.518-4.09-1.68-7.92-4.2-11.21-7.46-.95-.988-1.943-2.025-2.79-3.063zm14.75 1.036c.1.444.15.84.25 1.185 5.24 2.67 11.22 3.56 16.9 2.62.05-.1.05-.1.15-.15.2-.29.45-.59.6-.98-5.98 1.29-12.41.4-17.89-2.66zm-16 .247c-.24.148-.59.297-.89.297.9 1.185 1.95 2.27 2.99 3.407 6.98 6.817 15.85 10.423 24.93 10.818.3-.296.6-.592.95-.89-9.17-.148-18.24-3.705-25.17-10.62-1-.94-1.895-1.977-2.79-3.014v.01zm16.6 2.075c.25.494.45.938.75 1.332 4.29 1.828 8.92 2.52 13.41 2.223.5-.296.95-.692 1.4-1.038-5.23.643-10.663-.147-15.55-2.52v.003zm-28.06.196c.25.988.55 1.926.85 2.815 1.54 2.17 3.19 4.15 5.13 6.07 3.69 3.55 7.73 6.47 12.06 8.69 1 .19 2.048.34 2.99.44-5.23-2.33-10.12-5.58-14.35-9.78-2.64-2.52-4.78-5.34-6.68-8.25zm30.41 2.668c1.69 1.333 3.93 2.222 6.33 2.222 1.29 0 2.49-.196 3.535-.592-3.39 0-6.68-.495-9.864-1.63zm-27.92 3.706c2.69 4.594 6.78 8.15 11.76 10.077-3.19-1.927-6.18-4.2-8.873-6.966-1.047-.94-1.944-1.98-2.89-3.12zm38.43 3.36c-1.35.344-2.842.493-4.34.493h-.744c1.45.15 2.94.25 4.44.25.2-.24.45-.54.65-.74z"/><path fill="#0E2180" d="M132.718 110.51c-.454-.01-.914.017-1.373.085-2.27.36-3.906 1.62-5.057 3.42-.574 1.02-1 2.19-1.18 3.332-.364 2.73.424 7.322 5.27 9.123 2.24.84 5.115.54 7.295-1.05 1.212-.9 2.453-2.912 2.544-4.172h-4.057c-.12.54-.454 1.26-1.18 1.8-1.636 1.17-3.453.39-4.27-.18-1.242-.9-1.635-2.4-1.696-4.5 0-1.112.333-2.912 1.272-3.782 1.06-.84 2.332-1.08 3.512-.72 1.333.42 2.332 1.86 2.24 3.15h-5.692v2.82h9.87c.09-1.02-.09-2.01-.272-2.94-.333-1.413-1.182-3.122-2.09-4.142-1.304-1.44-3.168-2.204-5.136-2.247v.002zm15.57.018c-.36.01-.73.04-1.108.097-1.635.24-3.815 1.17-4.572 3.3-.636 1.98 0 3.782 1.242 4.713 1.544 1.17 4.45 1.47 5.63 1.74 1.363.27 2.06.45 2.272 1.23.15.48.09 1.08-.213 1.47-.88 1.14-2.64 1.23-4.06.81-1.18-.36-1.67-1.29-1.91-2.55h-3.54c0 1.17.36 1.98.97 2.91.75 1.232 2.12 2.222 4.12 2.522 2.18.36 4.42.09 5.72-.63.79-.45 1.36-1.02 1.87-1.65.72-.9 1.36-3.15.21-5.132-1-1.71-3.27-2.07-5.36-2.43-1.21-.21-2.64-.27-3.36-1.08-.31-.36-.31-.99-.12-1.35.48-.99 1.72-1.29 2.9-1.2 1.03 0 2 .54 2.39 1.44.18.36.24.75.27 1.17H155c.063-1.318-.483-2.67-1.3-3.51-.927-.944-2.92-1.935-5.432-1.867zm16.15.007c-1.12.06-2.332.24-3.27.6-2 .81-2.998 2.732-2.998 4.77h3.634c-.09-1.048.665-1.98 1.423-2.25.302-.15.756-.24 1.21-.24.91-.028 1.817.182 2.453.782.424.39.545.93.424 1.53-.242.932-1.272 1.26-2.876 1.472-.545.09-1.18.15-1.878.24-1.907.21-4.632 1.14-5.267 3.9-.212 1.08-.03 3.06 1.634 4.35 1.15.87 2.725 1.26 3.967 1.23.545 0 1.088-.06 1.543-.15 1.27-.27 2.27-.84 3.24-1.62.03.24.272 1.08.454 1.32h3.82c-.6-1.17-.51-2.88-.51-3.84v-4.83c-.03-1.26-.03-2.52-.3-3.69-.27-1.18-1.33-3.13-4.69-3.52-.63-.06-1.3-.06-2-.06h.01zm3.088 8.102c0 .36.06 2.912-.18 3.422-.395 1.08-1.546 1.71-2.908 1.83-.273.06-.576.09-.91.06-.906 0-1.694-.45-1.997-1.14-.36-.66-.15-1.35.1-1.74.55-.96 1.49-1.14 2.82-1.41.43-.03.88-.12 1.37-.27 1-.21 1.24-.39 1.73-.75v-.01z"/><path fill="#ED2939" d="M66 0h22v14H66z"/><path fill="#FFF" d="M66 5h22v5H66z"/><path fill="#ED2939" d="M90 0h22v14H90z"/><path fill="#FAE042" d="M90 0h14.667v14H90z"/><path fill="#000" d="M90 0h7.333v14H90z"/><path fill="#C60C30" d="M66 16h22v14H66z"/><path fill="#FFF" d="M73.135 16h2.378v14h-2.378z"/><path fill="#FFF" d="M66 22h22v2H66z"/><path fill="#ED2939" d="M90 16h22v14H90z"/><path fill="#FFF" d="M90 16h14.667v14H90z"/><path fill="#002395" d="M90 16h7.333v14H90z"/><path fill="#000" d="M66 32h22v14H66z"/><path fill="#D00" d="M66 36.667h22V46H66z"/><path fill="#FFCE00" d="M66 41.333h22V46H66z"/><path fill="#169B62" d="M90 32h22v14H90z"/><path fill="#FFF" d="M97.333 32H112v14H97.333z"/><path fill="#FF883E" d="M104.667 32H112v14h-7.333z"/><path fill="#009246" d="M63 136h7.333v14H63z"/><path fill="#FFF" d="M70.333 136h7.333v14h-7.333z"/><path fill="#CE2B37" d="M77.667 136H85v14h-7.333z"/><path fill="#006AA7" d="M63 168h22v14H63z"/><path fill="#FECC00" d="M69.875 168h2.75v14h-2.75z"/><path fill="#FECC00" d="M63 173.6h22v2.8H63z"/><path fill="#F00" d="M87 168h22v14H87z"/><path fill="#FFF" d="M93.217 173.31h9.565v2.897h-9.565z"/><path fill="#FFF" d="M96.565 169.93h2.87v9.656h-2.87z"/><path fill="#21468B" d="M87 136h22v14H87z"/><path fill="#FFF" d="M87 136h22v9.333H87z"/><path fill="#AE1C28" d="M87 136h22v4.667H87z"/><path fill="#EF2B2D" d="M63 152h22v14H63z"/><path fill="#FFF" d="M69 152h4v14h-4z"/><path fill="#FFF" d="M63 157.25h22v3.5H63z"/><path fill="#002868" d="M70 152h2v14h-2z"/><path fill="#002868" d="M63 158.125h22v1.75H63z"/><path fill="#C60B1E" d="M87 152h22v14H87z"/><path fill="#FFC400" d="M87 155.5h22v7H87z"/><g fill="#155195"><path d="M79.816 226.512c-2.65 0-5.33 1.096-5.33 5.04v5.34h2.367v-5.302c0-2.662 1.712-3.278 2.963-3.278 1.25 0 2.963.616 2.963 3.278v5.302h2.36v-5.34c0-3.944-2.68-5.04-5.33-5.04zm-16.722 5.333c0 2.508 1.093 5.047 5.03 5.047h4.817v-1.773h-4.2c-2.65 0-3.18-2.06-3.18-3.28 0-1.23.53-3.31 3.18-3.31h4.2v-1.74h-4.81c-3.93 0-5.03 2.54-5.03 5.04zm31.7-.71h-5.71c0-.862.06-3.08 2.825-3.08 3.29 0 2.88 3.08 2.88 3.08zm-5.716 1.527h8.242c.007-.282 0-.748 0-.748 0-4.494-2.94-5.4-5.612-5.4-3.756 0-5.15 2.692-5.15 5.188v.145c0 2.508 1.094 5.047 5.03 5.047h5.438v-1.774h-4.822c-2.207 0-2.94-1.272-3.126-2.458zm15.624-1.605h-1.33c-1.245 0-2.024-.397-2.024-1.288 0-.87.61-1.22 1.876-1.23h5.23v-1.74h-5.212c-2.116 0-4.516.35-4.516 2.97 0 2.85 3.195 2.81 4.138 2.81h1.33c1.246 0 2.024.4 2.024 1.29 0 .86-.61 1.21-1.875 1.22H99.11v1.74h5.213c2.117 0 4.517-.35 4.517-2.97 0-2.86-3.193-2.82-4.137-2.82zm-11.315-15.845c-4.004-.058-8.466-3.53-8.466-9.233v-18.9h-1.33v10.06c-5.76 1.25-10.06 6.04-10.06 11.77 0 6.68 5.84 12.09 13.05 12.09 5.48 0 10.16-3.15 12.1-7.6-1.23 1.07-3.35 1.81-5.28 1.79z"/><path d="M86.656 196.834c.552-.067 7.238.02 11.144 5.947 1.315 2 .032 4.49-3.928 4.63-1.413.05-6.465-1.24-7.216-10.57"/></g><path fill="#4B7AB7" d="M84.374 60.066c-.3 0-.698.05-.997.05-.897 4.99.15 10.177 3.14 14.474.25-.296.4-.542.6-.74-2.742-4.1-3.64-9.14-2.743-13.784zm.897 0c-.99 4.446-.09 9.19 2.55 13.19.2-.246.45-.443.65-.59-2.44-3.806-3.19-8.4-2.29-12.6h-.89zm1.8 0c-.89 4.05-.25 8.448 2.15 12.054.25-.148.45-.295.75-.443-2.24-3.458-2.89-7.61-1.99-11.56-.3 0-.59-.002-.89-.05zm-4.58.15c-.3.048-.59.048-.94.146-.84 5.385.5 11.116 3.89 15.71.2-.247.35-.542.6-.84-3.24-4.445-4.33-9.83-3.54-15.017zm6.38.048c-.89 3.704-.3 7.707 1.95 11.066.2-.148.5-.296.8-.395-2.09-3.112-2.74-6.965-1.84-10.523-.3-.048-.59-.148-.89-.148zm-8.22.296c-.3 0-.59.1-.89.15-.74 6.026.8 12.15 4.79 17.14.15-.296.3-.69.45-.987-3.68-4.743-5.08-10.67-4.33-16.303zm9.92 0c-.79 3.408-.2 7.114 1.95 10.177.3-.148.7-.15 1-.247-2.19-2.816-2.84-6.422-2.04-9.682-.3-.1-.6-.15-.9-.248zm-11.71.445c-.4.1-.69.148-.99.296-.6 6.53 1.45 13.2 5.98 18.48.15-.29.25-.69.4-1.03-4.28-5.04-6.08-11.51-5.38-17.73zm13.46 0c-.75 3.21 0 6.67 2.25 9.337.35 0 .75-.05 1.2-.05-2.49-2.47-3.29-5.88-2.54-8.99-.3-.05-.6-.2-.89-.297zm-15.35.593c-.3.148-.7.295-.99.444-.34 7.113 2.15 14.375 7.53 19.958 0-.148 0-.296.05-.444 0-.247.1-.544.1-.74-4.93-5.436-7.22-12.4-6.68-19.218zm17.05 0c-.64 2.816.15 6.027 2.4 8.25.25.148.4.346.6.494.9.1 1.8.296 2.7.543-.95-.395-1.85-.987-2.59-1.728-2.04-1.927-2.69-4.645-2.19-7.164-.29-.148-.59-.296-.89-.395zm1.65.74c-.35 2.174.3 4.547 2.05 6.227 1.95 1.926 4.79 2.518 7.33 1.73-.25-.298-.4-.543-.6-.84-2.09.593-4.43.098-6.08-1.533-1.39-1.432-1.99-3.357-1.79-5.185-.3-.148-.6-.298-.9-.397v-.002zm-20.58.1c-.29.15-.59.345-.89.494-.15 7.41 2.64 14.97 8.42 20.502.2.297.5.593.8.89V83.09c-.05-.05-.15-.15-.2-.15-5.68-5.632-8.42-13.092-8.12-20.502zm22.33.792c-.1 1.432.45 2.964 1.55 4.1 1.35 1.334 3.14 1.778 4.88 1.383-.25-.197-.45-.493-.69-.79-1.24.148-2.54-.297-3.49-1.285-.84-.79-1.29-1.827-1.34-2.864-.3-.148-.6-.394-.89-.542v-.002zm-24.12.245c-.3.148-.6.346-.9.494.15 7.55 3.09 15.06 8.93 20.74.85.79 1.65 1.53 2.55 2.27-.15-.5-.2-.94-.3-1.39-.5-.55-1.1-.99-1.64-1.58-5.78-5.59-8.62-13.09-8.62-20.55zm25.97.94c.15.592.45 1.184 1 1.63.6.59 1.35.988 2.15 1.037-.94-.94-1.99-1.828-3.14-2.667zm-27.66.245c-.3.198-.6.446-.89.643.35 7.558 3.49 14.97 9.37 20.65 1.5 1.48 3.14 2.815 4.84 3.952-.2-.445-.44-.99-.64-1.58-1.19-.89-2.39-1.93-3.59-3.016-5.78-5.69-8.87-13.1-9.07-20.65zm-1.74 1.335c-.3.297-.6.494-.9.79.55 4.842 2.05 9.485 4.59 13.783 1.25.395 2.24 1.483 2.24 2.817v.443c.9 1.187 1.89 2.274 2.99 3.41 2.54 2.52 5.38 4.595 8.47 6.126v-.05c-.15-.148-.3-.394-.55-.59-.29-.395-.59-.74-.89-1.186-2.24-1.333-4.39-3.063-6.33-4.99-5.88-5.68-9.07-12.993-9.62-20.55v-.003zm-1.64 1.63c-.3.296-.5.593-.8.89.6 4.297 1.99 8.347 4.09 12.2.3-.146.6-.196 1-.196-2.34-4.01-3.73-8.45-4.28-12.9zm-1.55 1.828c-.25.395-.45.69-.74 1.037.75 4 2.15 7.854 4.24 11.41.15-.295.4-.492.6-.74-1.99-3.703-3.44-7.607-4.09-11.707zm38.83 1.58c-1.64.593-3.39.593-5.03.148.85.3 1.6.75 2.35 1.24 1.04 0 2.14-.2 3.14-.59-.15-.29-.3-.59-.45-.79zm-40.27.593c-.2.346-.45.74-.6 1.186 1.65 6.67 5.09 12.943 10.32 18.13 6.78 6.67 15.35 10.425 24.13 11.264.35-.296.75-.543 1.09-.84-8.97-.592-17.69-4.298-24.52-11.017-1.29-1.29-2.49-2.62-3.54-4.01-1.34-.3-2.39-1.48-2.39-2.97v-.45c-2.09-3.56-3.59-7.41-4.49-11.32zm41.17.94c-.84.296-1.74.543-2.64.593.3.29.6.54.85.83.75-.1 1.5-.3 2.14-.6-.05-.3-.2-.59-.35-.84zM64 74.046c-.2.445-.35.89-.6 1.335 1.943 6.23 5.33 11.91 10.266 16.8 6.53 6.47 14.605 10.23 22.98 11.51.447-.24.797-.54 1.246-.74-8.574-1.03-16.948-4.84-23.577-11.36-5.086-5.09-8.526-11.07-10.32-17.54zm43.11.1c-.6.297-1.296.494-1.944.593.2.29.35.59.598.79.6-.15 1.098-.3 1.696-.5-.148-.3-.198-.6-.348-.89zm-10.74 1.426c-.4-.018-.8.007-1.174.056 1.595.94 3.39 1.53 5.084 1.828-.45-.494-.95-.938-1.547-1.234-.4-.148-.848-.296-1.197-.445-.375-.123-.77-.186-1.17-.204zm-2.27.254c-.4.147-.698.295-.997.443 2.49 1.87 5.335 2.91 8.226 3.11-.05-.3-.2-.65-.35-.94-2.5-.25-4.79-1.14-6.88-2.62zm13.656 0c-.5.147-1.047.394-1.545.542.15.198.3.494.45.79.45-.148.9-.297 1.35-.494-.1-.247-.15-.543-.25-.84v.002zm-44.807.987c-.15.494-.3 1.037-.35 1.53 2.09 5.485 5.38 10.672 9.87 15.12 6.08 5.977 13.45 9.83 21.33 11.46.45-.147.94-.345 1.49-.592-8.18-1.48-15.95-5.33-22.23-11.46-4.74-4.74-8.08-10.12-10.12-16.05zm29.35 0c-.1.05-.15.15-.25.198-.15.15-.3.3-.45.4 2.54 1.98 5.38 3.16 8.37 3.61h1.59v-.74c-3.29-.19-6.53-1.38-9.27-3.45zm15.99.74c-.45.15-.85.298-1.3.347.15.296.25.592.4.89.35-.148.64-.2 1.04-.347 0-.296-.1-.593-.15-.89zm-17.14.594c-.15.197-.3.494-.45.79 1.04.84 2.19 1.482 3.39 2.075h2.39c-1.9-.643-3.69-1.63-5.33-2.865zm17.49 1.086c-.35.15-.65.248-1.05.396.15.29.24.59.3.88.29-.15.59-.25.84-.3 0-.3-.1-.69-.1-.99zm-18.25.593c-.05.296-.15.593-.2.89.6.444 1.24.89 1.84 1.285v-.98h.25c-.7-.34-1.3-.74-1.9-1.18zm-28.11.248c-.1.593-.15 1.186-.15 1.78 2.09 4.642 5.13 8.99 9.02 12.843 5.58 5.484 12.16 9.19 19.19 11.215.6-.1 1.19-.248 1.79-.446-7.43-1.778-14.5-5.63-20.39-11.41-4.19-4.15-7.33-8.992-9.47-13.982zm46.6 1.038c-.3.05-.55.148-.85.197.1.29.15.59.15.89.25-.05.54-.15.74-.2 0-.3-.05-.59-.05-.89zm-18.84.594c-.1.346-.1.74-.1 1.037.69.445 1.44.79 2.09 1.137v-.94c-.65-.345-1.35-.79-1.99-1.233zm18.89 1.186c-.2.05-.35.148-.6.198 0 .198.1.494.1.79.15-.05.4-.05.49-.15v-.838zm-18.99.79v1.086c5.68 3.26 12.26 4.25 18.49 2.768.15-.296.2-.593.3-.89v-.098c-4.89 1.284-10.12.988-14.81-.89h-1.89v-.79c-.65-.394-1.4-.74-2.1-1.187zm-27.92.05c0 .74.1 1.48.15 2.172 2.04 3.607 4.63 7.016 7.72 10.08 4.78 4.742 10.32 8.2 16.25 10.423.75 0 1.5-.05 2.24-.15-6.53-2.123-12.66-5.778-17.89-10.965-3.54-3.46-6.28-7.412-8.48-11.562zm46.9.888c-.1.1-.3.1-.45.15 0 .296-.05.592-.05.888H96.69c3.987 1.037 8.225 1.037 12.212-.05 0-.297 0-.593.05-.988zm-33.6.15c-.15.296-.3.542-.5.74.8 1.037 1.64 2.025 2.64 2.963 4.83 4.742 10.67 7.855 16.9 9.337-1.89-.593-3.54-1.382-5.03-2.518-4.09-1.68-7.93-4.2-11.22-7.46-.95-.988-1.95-2.025-2.79-3.063zm14.76 1.036c.1.444.15.84.25 1.185 5.23 2.67 11.21 3.56 16.9 2.62.05-.1.05-.1.15-.15.2-.29.45-.59.6-.98-5.98 1.29-12.41.4-17.9-2.66zm-16 .247c-.25.148-.6.297-.9.297.9 1.185 1.94 2.27 2.99 3.407 6.98 6.817 15.85 10.423 24.92 10.818.3-.296.6-.592.95-.89-9.17-.148-18.24-3.705-25.17-10.62-1-.94-1.9-1.977-2.79-3.014v.01zm16.6 2.075c.25.494.45.938.75 1.332 4.28 1.828 8.92 2.52 13.4 2.223.5-.296.94-.692 1.39-1.038-5.23.643-10.67-.147-15.55-2.52v.003zm-28.06.196c.25.988.55 1.926.85 2.815 1.54 2.17 3.19 4.15 5.13 6.07 3.69 3.55 7.72 6.47 12.06 8.69.99.19 2.04.34 2.99.44-5.24-2.33-10.12-5.58-14.36-9.78-2.64-2.52-4.79-5.34-6.68-8.25zm30.4 2.668c1.69 1.333 3.94 2.222 6.33 2.222 1.29 0 2.49-.196 3.54-.592-3.39 0-6.68-.495-9.87-1.63zM65.1 94.698c2.69 4.594 6.78 8.15 11.766 10.077-3.19-1.927-6.18-4.2-8.87-6.966-1.047-.94-1.94-1.98-2.89-3.12zm38.43 3.36c-1.344.344-2.84.493-4.335.493h-.748c1.443.15 2.94.25 4.432.25.2-.24.45-.54.65-.74z"/><path fill="#0E2180" d="M70.718 110.51c-.454-.01-.914.017-1.373.085-2.27.36-3.906 1.62-5.057 3.42-.574 1.02-1 2.19-1.18 3.332-.364 2.73.424 7.322 5.27 9.123 2.24.84 5.115.54 7.295-1.05 1.212-.9 2.453-2.912 2.544-4.172H74.16c-.12.54-.454 1.26-1.18 1.8-1.636 1.17-3.453.39-4.27-.18-1.242-.9-1.635-2.4-1.696-4.5 0-1.112.333-2.912 1.272-3.782 1.06-.84 2.332-1.08 3.512-.72 1.333.42 2.332 1.86 2.24 3.15h-5.692v2.82h9.87c.09-1.02-.09-2.01-.272-2.94-.333-1.413-1.182-3.122-2.09-4.142-1.304-1.44-3.168-2.204-5.136-2.247v.002zm15.57.018c-.36.01-.73.04-1.108.097-1.635.24-3.815 1.17-4.572 3.3-.636 1.98 0 3.782 1.242 4.713 1.544 1.17 4.45 1.47 5.63 1.74 1.363.27 2.06.45 2.272 1.23.15.48.09 1.08-.213 1.47-.88 1.14-2.64 1.23-4.06.81-1.18-.36-1.67-1.29-1.91-2.55h-3.54c0 1.17.36 1.98.97 2.91.75 1.232 2.12 2.222 4.12 2.522 2.18.36 4.42.09 5.72-.63.79-.45 1.36-1.02 1.87-1.65.72-.9 1.36-3.15.21-5.132-1-1.71-3.27-2.07-5.36-2.43-1.21-.21-2.63-.27-3.36-1.08-.3-.36-.3-.99-.12-1.35.48-.99 1.72-1.29 2.9-1.2 1.03 0 2 .54 2.39 1.44.18.36.24.75.27 1.17H93c.064-1.318-.482-2.67-1.3-3.51-.926-.944-2.92-1.935-5.43-1.867zm16.15.007c-1.12.06-2.332.24-3.27.6-2 .81-2.998 2.732-2.998 4.77h3.634c-.09-1.048.665-1.98 1.423-2.25.302-.15.756-.24 1.21-.24.91-.028 1.817.182 2.453.782.424.39.545.93.424 1.53-.242.932-1.272 1.26-2.876 1.472-.545.09-1.18.15-1.878.24-1.907.21-4.632 1.14-5.267 3.9-.212 1.08-.03 3.06 1.634 4.35 1.15.87 2.725 1.26 3.967 1.23.545 0 1.088-.06 1.543-.15 1.27-.27 2.27-.84 3.24-1.62.03.24.272 1.08.454 1.32h3.82c-.6-1.17-.51-2.88-.51-3.84v-4.83c-.03-1.26-.03-2.52-.3-3.69-.27-1.18-1.33-3.13-4.69-3.52-.63-.06-1.3-.06-2-.06h.01zm3.088 8.102c0 .36.06 2.912-.18 3.422-.395 1.08-1.546 1.71-2.908 1.83-.273.06-.576.09-.91.06-.906 0-1.694-.45-1.997-1.14-.36-.66-.15-1.35.1-1.74.55-.96 1.49-1.14 2.82-1.41.43-.03.88-.12 1.37-.27 1-.21 1.24-.39 1.73-.75v-.01z"/><path fill="url(#a)" d="M78.083 19.583l.98-1.323c13.016 1.25 23.196.628 27.872-1.427 4.37-2.196 3.79-4.833 3.79-4.833.398.842.533 1.666.38 2.46-.768 3.978-8.472 5.866-19.627 5.866-4.064 0-8.584-.25-13.395-.742" transform="matrix(1 0 0 -1 244 118.325)"/><path fill="url(#b)" d="M43.59 21.678C45.473 10.945 55.643 3.78 66.31 5.672c10.664 1.892 17.785 12.126 15.906 22.86-1.68 9.573-9.95 16.31-19.29 16.31-1.13 0-2.276-.098-3.427-.303-10.67-1.9-17.79-12.13-15.91-22.87z" transform="matrix(1 0 0 -1 244 136.21)"/><path fill="url(#c)" d="M17.155 25.48c1.29-6.675 22.44-7.404 46.345-3.308 11.057 1.96 15.544 4.773 15.544 4.773-3.645-1.112-6.622-1.804-10.634-2.59-26.653-5.213-48.515-3.927-49.54 1.393-.75 3.87 9.114 9.752 24.793 14.676.197.895.3 1.286.39 1.61C27.77 37.036 16.15 30.678 17.155 25.48" transform="matrix(1 0 0 -1 244 147.677)"/><path fill="#231F20" d="M331.182 110.668c.865-.12.98-.133 1.544-.133 1.62 0 2.886 1.196 2.766 3.143-.185 2.977-1.233 3.664-2.54 3.664-.618 0-1.24-.05-2.016-.205.082-2.85.178-5.99.243-6.466zm2.356 8.367c4.046.1 4.49-3.8 4.49-5.293 0-3.423-2.437-5.08-4.68-5.08-1.224 0-2.762.12-4.63.46-.04 4.62-.2 9.477-.486 14.258l2.597.01s.01-2.332.07-4.606c.9.155 1.64.227 2.63.25zm9.713-4.23c.27-.158.85-.376 1.74-.657.76-.224 1.26-.46 1.51-.707-.07 1.53-.16 3.24-.21 4.01-.98.24-1.7.31-2.43.31-.98 0-1.45-.61-1.45-1.52 0-.56.29-1.11.85-1.43zm-.15 4.568c2.99-.053 5.72-.93 5.72-.93 0-.922.06-1.618.17-3.448.11-1.842.16-2.808.16-3.727-.02-.842-.24-1.47-.74-1.883-.61-.507-1.6-.76-2.99-.76-1.24 0-2.63.188-4.16.57l-.28 2.02c1.39-.57 2.64-.854 3.76-.854.61 0 1.05.09 1.31.26.26.15.98 1.19-.88 1.77l-2.73.81c-1.84.64-2.76 1.69-2.76 3.15 0 .76.19 1.38.56 1.87.56.78 1.52 1.19 2.88 1.16l.01.02zm-64.06-4.57c.27-.156.85-.374 1.74-.655.76-.223 1.26-.46 1.51-.71-.07 1.527-.16 3.237-.21 4.004-.98.238-1.7.31-2.43.31-.98 0-1.45-.612-1.45-1.52 0-.56.29-1.108.85-1.436v.008zm-.15 4.57c2.98-.052 5.72-.93 5.72-.93 0-.92.06-1.617.17-3.447.11-1.842.16-2.808.16-3.728-.02-.84-.24-1.467-.74-1.88-.6-.507-1.6-.76-2.98-.76-1.25 0-2.63.19-4.17.57l-.28 2.02c1.39-.568 2.64-.852 3.76-.852.61 0 1.05.084 1.31.253.26.15.98 1.19-.88 1.76l-2.73.81c-1.84.64-2.76 1.69-2.76 3.14 0 .75.19 1.37.56 1.87.57.77 1.53 1.18 2.89 1.16h.01zm-28.26-1.927c-.97.237-1.7.312-2.43.312-.98 0-1.45-.612-1.45-1.52 0-.56.29-1.108.85-1.434.27-.157.85-.375 1.74-.656.76-.224 1.26-.46 1.51-.707-.07 1.53-.16 3.24-.21 4.01zm2.12-8.06c-.6-.505-1.6-.757-2.99-.757-1.24 0-2.63.18-4.16.56l-.28 2.02c1.39-.57 2.64-.86 3.76-.86.62 0 1.05.08 1.32.25.26.15.98 1.19-.88 1.76l-2.73.81c-1.84.64-2.76 1.69-2.76 3.14 0 .75.19 1.37.56 1.87.57.77 1.53 1.18 2.89 1.16 2.98-.06 5.72-.93 5.72-.93 0-.92.06-1.62.17-3.45.11-1.85.15-2.81.15-3.73-.02-.84-.24-1.47-.73-1.89zm11.42 1.733l-.07-2.42c-.3-.07-.58-.11-.84-.11-1.12 0-2.01.53-2.68 1.61l.05-1.38h-2.75c-.02 3.78-.17 7.19-.45 10.25l2.92.01c0-2.19.1-4.96.27-5.78.31-1.59 1.15-2.39 2.52-2.39.31 0 .67.07 1.06.2l.01-.01zm7.02-2.29h-2.86c-.02 3.8-.17 7.22-.45 10.26l2.93-.05c.03-3.88.18-7.57.4-10.22zm28.54 10.21c.01-1.09.08-2.8.16-4.26.1-1.69.14-2.66.14-2.92 0-2.18-1.23-3.27-3.69-3.27-1.78 0-3.04.63-3.82 1.89l.11-1.66h-2.85c-.01 3.6-.16 7.02-.45 10.27l2.87-.01c.06-2.51.2-4.67.35-5.52.33-1.79 1.22-2.95 2.66-2.95 1.4 0 2.1.74 2.1 2.21 0 1.65-.16 3.92-.46 6.27l2.93-.06-.01-.02zm-29.94-12.83c.41 0 .83-.14 1.12-.41.29-.28.38-.61.38-1.01 0-.39-.14-.72-.43-.99-.29-.28-.64-.41-1.05-.41-.42 0-.77.13-1.07.41-.29.27-.43.6-.43.99s.14.73.44 1 .65.41 1.07.41zm51.15 11c-.31.15-.69.22-1.15.22-.76 0-1.79-.25-3.09-.76l.24 2.22c1.32.28 2.47.43 3.47.43 1.09 0 2.01-.2 2.76-.6.94-.5 1.41-1.23 1.41-2.19 0-.74-.35-1.46-1.07-2.16-.19-.2-.84-.73-1.96-1.6-.71-.54-1.07-.98-1.07-1.33 0-.66.65-.98 1.95-.98.68 0 1.48.18 2.37.54l-.14-2.11c-1.23-.22-2.3-.33-3.19-.33-2.64 0-3.96.94-3.96 2.83 0 .67.35 1.34 1.06 2 .03.03.69.54 1.98 1.53.7.55 1.06 1.02 1.06 1.41 0 .39-.22.67-.65.85l.01-.02zm36.32-6.65c.66 0 1.41.15 2.25.46l-.12-2.07c-.86-.25-1.69-.37-2.49-.37-2.04 0-3.49.83-4.33 2.51-.46.94-.69 1.97-.69 3.11 0 1.61.42 2.87 1.27 3.79.82.88 1.92 1.32 3.32 1.32.81 0 1.66-.12 2.57-.35l.32-2.11c-.87.32-1.63.47-2.26.47-.86.01-1.52-.28-1.99-.87-.46-.59-.69-1.39-.69-2.4 0-1.07.23-1.91.68-2.52.5-.67 1.23-1.01 2.19-1.01h.01zm6.7 2.55s-.06-2.87 2.39-2.83c1.3.01 1.95.67 1.95 2.02 0 .11-.01.56-.03.81h-4.31zm2.45-4.54c-1.9 0-3.28.72-4.15 2.16-.58.99-.87 2.18-.87 3.57 0 1.21.27 2.22.79 3.03.86 1.32 2.32 1.97 4.39 1.97.82 0 1.79-.13 2.9-.4l.32-2.01c-1.11.39-2.09.58-2.94.58-1.92 0-2.89-1-2.92-2.98l6.68-.05c.4-2.7-.28-4.1-1.04-4.84-.73-.71-1.77-1.06-3.13-1.06zm-55.3 3.73c0 .11-.01.56-.02.81h-4.3s-.05-2.87 2.39-2.83c1.3.02 1.95.67 1.95 2.02zm2.3 2.17c.4-2.71-.27-4.1-1.04-4.85-.73-.71-1.78-1.06-3.14-1.06-1.9 0-3.28.72-4.15 2.16-.58.99-.87 2.18-.87 3.57 0 1.21.26 2.22.79 3.03.86 1.32 2.32 1.97 4.4 1.97.83 0 1.79-.13 2.9-.39l.32-2c-1.12.39-2.1.58-2.94.58-1.91 0-2.89-1-2.92-2.98l6.67-.05z"/><path fill="#19415C" d="M314.474 92.91c-4.452-1.947-9.132-1.82-12.632-.872-1.98 2.304-4.174 6.724-3.435 11.768 1.116 7.62 3.85 9.792 3.85 9.792-2.148-3.434-3.823-17.975 12.218-20.686"/><path fill="url(#d)" d="M59.666 26.48s-8.242-2.958-6.976-13.894C53.62 4.59 58.325 0 58.325 0c-1.583 2.523-2.206 5.787-2.28 9.284-.334 15.46 9.063 15.488 10.197 15.657 1.38-.13 2.576-.39 2.576-.39s.322 1.36.747 2.74c-1.82.31-3.527.43-5.07.43-4.746 0-7.905-1.12-7.905-1.12l3.076-.12z" transform="matrix(1 0 0 -1 244 113.718)"/><path fill="url(#a)" d="M78.083 19.583l.98-1.323c13.016 1.25 23.196.628 27.872-1.427 4.37-2.196 3.79-4.833 3.79-4.833.398.842.533 1.666.38 2.46-.768 3.978-8.472 5.866-19.627 5.866-4.064 0-8.584-.25-13.395-.742" transform="matrix(1 0 0 -1 244 41.325)"/><path fill="url(#b)" d="M43.59 21.678C45.473 10.945 55.643 3.78 66.31 5.672c10.664 1.892 17.785 12.126 15.906 22.86-1.68 9.573-9.95 16.31-19.29 16.31-1.13 0-2.276-.098-3.427-.303-10.67-1.9-17.79-12.13-15.91-22.87z" transform="matrix(1 0 0 -1 244 59.21)"/><path fill="url(#c)" d="M17.155 25.48c1.29-6.675 22.44-7.404 46.345-3.308 11.057 1.96 15.544 4.773 15.544 4.773-3.645-1.112-6.622-1.804-10.634-2.59-26.653-5.213-48.515-3.927-49.54 1.393-.75 3.87 9.114 9.752 24.793 14.676.197.895.3 1.286.39 1.61C27.77 37.036 16.15 30.678 17.155 25.48" transform="matrix(1 0 0 -1 244 70.677)"/><path fill="#231F20" d="M331.182 33.668c.865-.12.98-.133 1.544-.133 1.62 0 2.886 1.196 2.766 3.143-.185 2.977-1.233 3.664-2.54 3.664-.618 0-1.24-.05-2.016-.205.082-2.85.178-5.99.243-6.466zm2.356 8.367c4.046.1 4.49-3.8 4.49-5.293 0-3.423-2.437-5.08-4.68-5.08-1.224 0-2.762.12-4.63.46-.04 4.62-.2 9.477-.486 14.258l2.597.01s.01-2.332.07-4.606c.9.155 1.64.227 2.63.25zm9.713-4.23c.27-.158.85-.376 1.74-.657.76-.224 1.26-.46 1.51-.707-.07 1.53-.16 3.24-.21 4.01-.98.24-1.7.31-2.43.31-.98 0-1.45-.61-1.45-1.52 0-.56.29-1.11.85-1.43zm-.15 4.568c2.99-.053 5.72-.93 5.72-.93 0-.922.06-1.618.17-3.448.11-1.842.16-2.808.16-3.727-.02-.842-.24-1.47-.74-1.883-.61-.507-1.6-.76-2.99-.76-1.24 0-2.63.188-4.16.57l-.28 2.02c1.39-.57 2.64-.854 3.76-.854.61 0 1.05.09 1.31.26.26.15.98 1.19-.88 1.77l-2.73.81c-1.84.64-2.76 1.69-2.76 3.15 0 .76.19 1.38.56 1.87.56.78 1.52 1.19 2.88 1.16l.01.02zm-64.06-4.57c.27-.156.85-.374 1.74-.655.76-.223 1.26-.46 1.51-.71-.07 1.527-.16 3.237-.21 4.004-.98.238-1.7.31-2.43.31-.98 0-1.45-.612-1.45-1.52 0-.56.29-1.108.85-1.436v.008zm-.15 4.57c2.98-.052 5.72-.93 5.72-.93 0-.92.06-1.617.17-3.447.11-1.842.16-2.808.16-3.728-.02-.84-.24-1.467-.74-1.88-.6-.507-1.6-.76-2.98-.76-1.25 0-2.63.19-4.17.57l-.28 2.02c1.39-.568 2.64-.852 3.76-.852.61 0 1.05.084 1.31.253.26.15.98 1.19-.88 1.76l-2.73.81c-1.84.64-2.76 1.69-2.76 3.14 0 .75.19 1.37.56 1.87.57.77 1.53 1.18 2.89 1.16h.01zm-28.26-1.927c-.97.237-1.7.312-2.43.312-.98 0-1.45-.612-1.45-1.52 0-.56.29-1.108.85-1.434.27-.157.85-.375 1.74-.656.76-.224 1.26-.46 1.51-.707-.07 1.53-.16 3.24-.21 4.01zm2.12-8.06c-.6-.505-1.6-.757-2.99-.757-1.24 0-2.63.18-4.16.56l-.28 2.02c1.39-.57 2.64-.86 3.76-.86.62 0 1.05.08 1.32.25.26.15.98 1.19-.88 1.76l-2.73.81c-1.84.64-2.76 1.69-2.76 3.14 0 .75.19 1.37.56 1.87.57.77 1.53 1.18 2.89 1.16 2.98-.06 5.72-.93 5.72-.93 0-.92.06-1.62.17-3.45.11-1.85.15-2.81.15-3.73-.02-.84-.24-1.47-.73-1.89zm11.42 1.733l-.07-2.42c-.3-.07-.58-.11-.84-.11-1.12 0-2.01.53-2.68 1.61l.05-1.38h-2.75c-.02 3.78-.17 7.19-.45 10.25l2.92.01c0-2.19.1-4.96.27-5.78.31-1.59 1.15-2.39 2.52-2.39.31 0 .67.07 1.06.2l.01-.01zm7.02-2.29h-2.86c-.02 3.8-.17 7.22-.45 10.26l2.93-.05c.03-3.88.18-7.57.4-10.22zm28.54 10.21c.01-1.09.08-2.8.16-4.26.1-1.69.14-2.66.14-2.92 0-2.18-1.23-3.27-3.69-3.27-1.78 0-3.04.63-3.82 1.89l.11-1.66h-2.85c-.01 3.6-.16 7.02-.45 10.27l2.87-.01c.06-2.51.2-4.67.35-5.52.33-1.79 1.22-2.95 2.66-2.95 1.4 0 2.1.74 2.1 2.21 0 1.65-.16 3.92-.46 6.27l2.93-.06-.01-.02zm-29.95-12.83c.41 0 .83-.14 1.12-.42.29-.28.38-.61.38-1.01 0-.39-.14-.72-.43-.99-.29-.28-.64-.41-1.05-.41-.42 0-.77.13-1.06.41-.29.27-.43.6-.43.99s.15.73.44 1c.3.27.65.41 1.07.41zm51.15 11c-.31.15-.69.22-1.14.22-.76 0-1.79-.25-3.09-.76l.24 2.22c1.32.28 2.47.43 3.47.43 1.09 0 2.01-.2 2.76-.6.94-.5 1.41-1.23 1.41-2.19 0-.74-.36-1.46-1.07-2.16-.19-.2-.84-.73-1.96-1.6-.71-.54-1.07-.98-1.07-1.33 0-.66.65-.98 1.95-.98.68 0 1.48.18 2.37.54l-.14-2.11c-1.24-.22-2.3-.33-3.2-.33-2.64 0-3.96.95-3.96 2.83 0 .68.35 1.35 1.05 2.01.03.03.69.54 1.98 1.53.7.55 1.06 1.02 1.06 1.41 0 .39-.22.67-.65.85l.02-.02zm36.33-6.65c.66 0 1.41.15 2.25.46l-.12-2.07c-.86-.25-1.69-.37-2.49-.37-2.04 0-3.48.83-4.33 2.51-.46.94-.69 1.97-.69 3.11 0 1.61.42 2.87 1.27 3.79.82.88 1.92 1.32 3.32 1.32.81 0 1.66-.12 2.57-.35l.32-2.1c-.87.31-1.63.47-2.26.47-.86.01-1.52-.28-1.99-.87-.46-.59-.69-1.39-.69-2.4 0-1.07.23-1.91.68-2.52.51-.67 1.24-1.01 2.19-1.01h.01zm6.69 2.55s-.06-2.87 2.39-2.83c1.3.01 1.95.67 1.95 2.02 0 .11-.01.56-.03.81h-4.32zm2.45-4.54c-1.9 0-3.28.72-4.15 2.16-.58.99-.88 2.18-.88 3.57 0 1.21.27 2.22.79 3.03.86 1.32 2.32 1.97 4.39 1.97.83 0 1.79-.14 2.9-.4l.31-2.01c-1.11.39-2.09.58-2.94.58-1.92 0-2.89-.99-2.92-2.97l6.68-.05c.4-2.7-.27-4.09-1.04-4.84-.72-.71-1.77-1.06-3.13-1.06zm-55.3 3.73c0 .11-.01.56-.02.81h-4.31s-.05-2.87 2.39-2.83c1.3.02 1.95.67 1.95 2.02zm2.3 2.17c.4-2.7-.27-4.1-1.04-4.84-.73-.71-1.78-1.06-3.13-1.06-1.9 0-3.28.72-4.15 2.16-.58.99-.87 2.18-.87 3.57 0 1.21.26 2.23.79 3.04.86 1.31 2.32 1.97 4.39 1.97.83 0 1.79-.13 2.9-.4l.32-2.01c-1.11.39-2.1.58-2.94.58-1.92 0-2.89-.99-2.93-2.98l6.68-.05z"/><path fill="#19415C" d="M314.474 15.91c-4.452-1.947-9.132-1.82-12.632-.872-1.98 2.304-4.174 6.724-3.435 11.768 1.116 7.62 3.85 9.792 3.85 9.792-2.148-3.434-3.823-17.975 12.218-20.686"/><path fill="url(#d)" d="M59.666 26.48s-8.242-2.958-6.976-13.894C53.62 4.59 58.325 0 58.325 0c-1.583 2.523-2.206 5.787-2.28 9.284-.334 15.46 9.063 15.488 10.197 15.657 1.38-.13 2.576-.39 2.576-.39s.322 1.36.747 2.74c-1.82.31-3.527.43-5.07.43-4.746 0-7.905-1.12-7.905-1.12l3.076-.12z" transform="matrix(1 0 0 -1 244 36.718)"/></g></svg>
