<?xml version="1.0" encoding="UTF-8"?>
<svg xmlns="http://www.w3.org/2000/svg" viewBox="0 0 358 128"><defs><linearGradient id="a" x1="-.001%" x2="100.001%" y1="50.001%" y2="50.001%"><stop stop-color="#C8DBE6" offset="0%"/><stop stop-color="#C8DBE6" offset="0%"/><stop stop-color="#C8DBE6" offset="0%"/><stop stop-color="#C8DBE6" offset="0%"/><stop stop-color="#C8DBE6" offset="0%"/><stop stop-color="#427A9B" offset="61.539%"/><stop stop-color="#427A9B" offset="61.539%"/><stop stop-color="#326D90" offset="100%"/></linearGradient><radialGradient id="b" cx="31.41%" cy="34.652%" r="1.14%" fx="31.41%" fy="34.652%"><stop stop-color="#D9F3FD" offset="0%"/><stop stop-color="#40C2F3" offset="100%"/></radialGradient><linearGradient id="c" x1="51.906%" x2="45.511%" y1="-.004%" y2="100.979%"><stop stop-color="#2C78A0" offset="0%"/><stop stop-color="#2C78A0" offset="0%"/><stop stop-color="#2C78A0" offset="0%"/><stop stop-color="#2C78A0" offset="0%"/><stop stop-color="#2C78A0" offset="0%"/><stop stop-color="#246184" offset="15.935%"/><stop stop-color="#246184" offset="15.935%"/><stop stop-color="#C8DBE6" offset="100%"/><stop stop-color="#C8DBE6" offset="100%"/></linearGradient><linearGradient id="d" x1="63.7%" x2="34.798%" y1="111.21%" y2="44.624%"><stop stop-color="#5F91AE" offset="0%"/><stop stop-color="#025783" offset="49.451%"/><stop stop-color="#025783" offset="49.451%"/><stop stop-color="#FFF" offset="100%"/><stop stop-color="#FFF" offset="100%"/></linearGradient></defs><g fill="none" fill-rule="evenodd"><path fill="url(#a)" d="M.51 21.18l2.744-3.676C39.632 20.98 68.09 19.25 81.16 13.54 93.373 7.44 91.75.115 91.75.115c1.116 2.34 1.493 4.628 1.064 6.838-2.145 11.047-23.68 16.29-54.86 16.29-11.36 0-23.995-.696-37.444-2.06" transform="matrix(1 0 0 -1 219.753 58.575)"/><path fill="url(#b)" d="M46.063 109.57C16.245 104.313-3.66 75.88 1.596 46.067 6.854 16.253 35.283-3.65 65.1 1.607c29.81 5.254 49.716 33.683 44.463 63.498-4.692 26.594-27.816 45.307-53.917 45.306-3.16 0-6.365-.27-9.584-.84" transform="matrix(1 0 0 -1 122.253 127.325)"/><path fill="url(#c)" d="M.2 17.277C3.806-1.263 62.927-3.29 129.746 8.09c30.907 5.44 43.45 13.258 43.45 13.258-10.188-3.09-18.51-5.012-29.725-7.195C68.97-.327 7.86 3.245 4.99 18.023 2.9 28.773 30.47 45.11 74.298 58.788c.55 2.486.834 3.572 1.09 4.47C29.87 49.38-2.607 31.718.2 17.278" transform="matrix(1 0 0 -1 49.753 119.825)"/><path fill="#231F20" d="M245.698 70.523c2.417-.336 2.74-.37 4.316-.37 4.53 0 8.066 3.323 7.732 8.73-.517 8.27-3.447 10.178-7.097 10.178-1.73 0-3.47-.14-5.64-.57.23-7.92.5-16.64.68-17.96zm-.784 22.544c2.53.43 4.614.63 7.37.698 11.31.275 12.547-10.553 12.547-14.705 0-9.508-6.81-14.113-13.08-14.113-3.42 0-7.72.338-12.94 1.28-.11 12.83-.56 26.326-1.36 39.605l7.26.025s.05-6.474.22-12.79zm34.52-11.055c.756-.438 2.377-1.043 4.85-1.824 2.107-.62 3.516-1.275 4.22-1.962-.196 4.24-.455 8.997-.596 11.124-2.735.658-4.77.867-6.795.867-2.754 0-4.043-1.7-4.043-4.22 0-1.56.79-3.08 2.363-3.985zm-.43 12.69c8.34-.146 15.99-2.586 15.99-2.586 0-2.557.157-4.49.465-9.573.3-5.117.43-7.8.43-10.354-.06-2.34-.69-4.08-2.07-5.23-1.7-1.41-4.48-2.11-8.36-2.11-3.49 0-7.37.52-11.65 1.58l-.8 5.61c3.88-1.58 7.38-2.37 10.5-2.37 1.71 0 2.94.23 3.66.7.73.42 2.73 3.3-2.46 4.9l-7.63 2.25c-5.15 1.78-7.73 4.69-7.73 8.74 0 2.09.52 3.82 1.56 5.19 1.58 2.15 4.26 3.29 8.06 3.22zM99.936 82.012c.76-.437 2.38-1.042 4.853-1.823 2.11-.62 3.51-1.28 4.22-1.97-.2 4.24-.46 8.99-.6 11.12-2.74.66-4.77.86-6.79.86-2.76 0-4.05-1.7-4.05-4.22 0-1.56.79-3.08 2.36-3.99zm-.427 12.69c8.33-.145 15.99-2.585 15.99-2.585 0-2.557.15-4.49.46-9.573.31-5.117.43-7.8.43-10.354-.06-2.334-.69-4.077-2.07-5.227-1.69-1.405-4.47-2.106-8.35-2.106-3.49 0-7.37.523-11.65 1.58l-.8 5.616c3.88-1.58 7.38-2.37 10.5-2.37 1.71 0 2.94.235 3.67.703.72.426 2.73 3.307-2.46 4.906l-7.63 2.246c-5.15 1.78-7.73 4.694-7.73 8.745 0 2.09.52 3.82 1.56 5.193 1.58 2.152 4.26 3.295 8.06 3.227zM20.52 89.35c-2.734.658-4.77.867-6.79.867-2.758 0-4.048-1.7-4.048-4.22 0-1.56.79-3.08 2.36-3.985.76-.438 2.38-1.043 4.854-1.824 2.11-.62 3.515-1.275 4.218-1.962-.195 4.24-.455 8.997-.595 11.124zm5.92-22.387c-1.69-1.405-4.474-2.106-8.353-2.106-3.488 0-7.37.523-11.647 1.58l-.8 5.616c3.88-1.58 7.382-2.37 10.502-2.37 1.717 0 2.94.235 3.673.703.723.426 2.728 3.307-2.46 4.906L9.72 77.538C4.58 79.318 2 82.232 2 86.283c0 2.09.523 3.82 1.563 5.193 1.576 2.152 4.26 3.295 8.057 3.227 8.338-.147 15.99-2.587 15.99-2.587 0-2.557.156-4.49.466-9.573.307-5.117.43-7.8.43-10.354-.053-2.34-.688-4.08-2.063-5.23zm31.918 4.813l-.21-6.715c-.844-.2-1.632-.3-2.364-.3-3.15 0-5.623 1.49-7.508 4.48l.126-3.82h-7.678c-.056 10.51-.478 19.99-1.26 28.47l8.16.03c0-6.08.285-13.78.735-16.06.87-4.42 3.22-6.63 7.04-6.63.87 0 1.86.19 2.95.57zm19.618-6.363H69.96c-.055 10.56-.475 20.07-1.264 28.523l8.172-.13c.076-10.756.492-21.03 1.11-28.393zm79.768 28.368c.03-3.01.218-7.77.437-11.82.26-4.68.38-7.38.38-8.11 0-6.05-3.44-9.08-10.33-9.08-4.97 0-8.49 1.75-10.67 5.26l.3-4.6h-7.97c-.02 10.01-.45 19.52-1.26 28.53l8-.03c.18-6.96.55-12.96.99-15.32.9-4.97 3.41-8.19 7.43-8.19 3.91 0 5.86 2.05 5.86 6.15 0 4.59-.46 10.885-1.3 17.41l8.17-.16zM74.04 58.15c1.15 0 2.305-.383 3.12-1.144.816-.762 1.05-1.692 1.05-2.788 0-1.07-.406-1.99-1.22-2.754-.817-.76-1.8-1.14-2.95-1.14-1.17 0-2.162.38-2.98 1.14-.816.765-1.222 1.684-1.222 2.755 0 1.09.406 2.02 1.223 2.79.82.76 1.81 1.14 2.98 1.14zM217 88.712c-.875.413-1.942.614-3.21.614-2.132 0-5.02-.7-8.647-2.105l.676 6.19c3.68.79 6.91 1.19 9.7 1.19 3.04 0 5.61-.55 7.72-1.66 2.61-1.37 3.92-3.39 3.92-6.06 0-2.04-1-4.05-3-6-.54-.55-2.36-2.03-5.48-4.43-2-1.49-3-2.72-3-3.68 0-1.81 1.81-2.72 5.44-2.72 1.91 0 4.12.5 6.62 1.5l-.39-5.84c-3.46-.61-6.44-.92-8.94-.92-7.37 0-11.06 2.62-11.06 7.86 0 1.87.98 3.73 2.95 5.57.08.09 1.93 1.51 5.53 4.25 1.96 1.53 2.95 2.83 2.95 3.91s-.61 1.87-1.82 2.37zm101.53-18.47c1.826 0 3.92.42 6.284 1.274l-.335-5.75c-2.4-.675-4.72-1.008-6.97-1.008-5.71 0-9.75 2.323-12.11 6.974-1.3 2.606-1.94 5.485-1.94 8.646 0 4.477 1.18 7.984 3.54 10.528 2.28 2.457 5.37 3.686 9.28 3.686 2.25 0 4.64-.32 7.17-.964l.88-5.838c-2.45.88-4.56 1.322-6.32 1.322-2.4.028-4.26-.776-5.58-2.416-1.29-1.64-1.94-3.864-1.94-6.67 0-2.955.63-5.283 1.89-6.978 1.41-1.873 3.45-2.807 6.12-2.807zm30.76 7.094h-12.055s-.162-7.96 6.685-7.866c3.628.052 5.445 1.873 5.445 5.617 0 .306-.045 1.566-.074 2.25zm3.575-9.664c-2.052-1.96-4.98-2.94-8.776-2.94-5.32 0-9.19 2.005-11.61 6.01-1.63 2.75-2.45 6.058-2.45 9.918 0 3.363.73 6.175 2.19 8.425 2.39 3.658 6.48 5.485 12.28 5.485 2.3 0 5-.37 8.1-1.098l.88-5.57c-3.12 1.078-5.86 1.62-8.23 1.62-5.36 0-8.09-2.754-8.18-8.265l18.68-.135c1.11-7.506-.77-11.372-2.91-13.45zm-168.77 1.798c3.626.052 5.443 1.873 5.443 5.617 0 .306-.042 1.566-.077 2.25h-12.04s-.16-7.96 6.68-7.867zm-6.83 11.787l18.68-.135c1.11-7.506-.77-11.372-2.904-13.45-2.05-1.96-4.98-2.94-8.77-2.94-5.31 0-9.18 2.005-11.6 6.01-1.63 2.75-2.44 6.058-2.44 9.918 0 3.363.73 6.175 2.19 8.425 2.4 3.658 6.49 5.485 12.28 5.485 2.31 0 5-.37 8.1-1.098l.89-5.57c-3.12 1.078-5.86 1.62-8.22 1.62-5.36 0-8.08-2.754-8.18-8.265z"/><path fill="#19415C" d="M198.995 21.193c-12.445-5.406-25.527-5.058-35.312-2.422-5.53 6.4-11.667 18.68-9.6 32.69 3.12 21.17 10.763 27.2 10.763 27.2-6.005-9.54-10.687-49.93 34.15-57.46"/><path fill="url(#d)" d="M11.675 74.715l8.604-.333S-2.76 66.17.78 35.792C3.378 13.582 16.532.83 16.532.83c-4.425 7.008-6.168 16.075-6.377 25.79-.93 42.946 25.336 43.02 28.506 43.49 3.86-.38 7.2-1.088 7.2-1.088s.9 3.76 2.09 7.61c-5.09.865-9.86 1.193-14.17 1.193-13.27 0-22.1-3.11-22.1-3.11" transform="matrix(1 0 0 -1 148.503 79.825)"/></g></svg>
