<?xml version="1.0" encoding="UTF-8"?>
<svg xmlns="http://www.w3.org/2000/svg" viewBox="0 0 260 282"><g fill="#155195" fill-rule="evenodd"><path d="M95.683 223.055c-14.925 0-30.016 6.16-30.016 28.32v30.017H79v-29.796c0-14.962 9.64-18.42 16.683-18.42 7.032 0 16.68 3.458 16.68 18.42v29.796h13.332v-30.016c0-22.16-15.097-28.32-30.012-28.32M1.528 253.03c0 14.096 6.154 28.362 28.318 28.362H56.97v-9.964H33.314c-14.958 0-17.902-11.526-17.902-18.397 0-6.88 2.945-18.58 17.903-18.58H56.97v-9.78H29.847c-22.164 0-28.318 14.266-28.318 28.368m178.49-4.002h-32.16c0-4.84.34-17.3 15.91-17.3 18.534 0 16.245 17.3 16.245 17.3zm-32.19 8.585h46.41c.035-1.587 0-4.203 0-4.203 0-25.26-16.56-30.354-31.598-30.354-21.15 0-28.993 15.133-28.993 29.163l-.006.814c0 14.094 6.16 28.36 28.32 28.36h30.62v-9.965H165.43c-12.425 0-16.547-7.15-17.6-13.814zm87.974-9.02h-7.485c-7.017 0-11.4-2.23-11.4-7.24 0-4.866 3.43-6.833 10.56-6.91h29.444v-9.78h-29.34c-11.917 0-25.43 1.99-25.43 16.694 0 16.052 17.988 15.8 23.298 15.8h7.484c7.022 0 11.404 2.24 11.404 7.25 0 4.855-3.434 6.828-10.56 6.89h-29.455v9.785h29.345c11.917 0 25.432-1.984 25.432-16.685 0-16.055-17.98-15.81-23.296-15.81m-63.713-89.042c-22.544-.33-47.664-19.833-47.664-51.89V1.477h-7.49v56.57c-32.48 7.05-56.68 33.976-56.68 66.187 0 37.55 32.855 67.983 73.466 67.983 30.86 0 57.203-17.682 68.09-42.72-6.954 6.043-18.897 10.197-29.727 10.054"/><path d="M134.193 56.267c3.108-.374 40.756.12 62.744 33.42 7.407 11.214.183 25.22-22.114 25.97-7.954.26-36.4-6.963-40.63-59.39"/></g></svg>
